<?xml version="1.0" encoding="UTF-8" standalone="no"?>
<svg
   xmlns:dc="http://purl.org/dc/elements/1.1/"
   xmlns:cc="http://creativecommons.org/ns#"
   xmlns:rdf="http://www.w3.org/1999/02/22-rdf-syntax-ns#"
   xmlns:svg="http://www.w3.org/2000/svg"
   xmlns="http://www.w3.org/2000/svg"
   id="svg8"
   version="1.1"
   viewBox="0 0 512 165"
   height="165"
   width="512">
  <defs
     id="defs2" />
  <metadata
     id="metadata5">
    <rdf:RDF>
      <cc:Work
         rdf:about="">
        <dc:format>image/svg+xml</dc:format>
        <dc:type
           rdf:resource="http://purl.org/dc/dcmitype/StillImage" />
        <dc:title></dc:title>
      </cc:Work>
    </rdf:RDF>
  </metadata>
  <g
     style="display:inline;opacity:1"
     transform="translate(0,-508.53336)"
     id="layer1">
    <g
       id="text5266"
       style="font-style:normal;font-weight:normal;font-size:602.72607422px;line-height:28.25278473px;font-family:Sans;letter-spacing:0px;word-spacing:0px;display:inline;fill:#000000;fill-opacity:1;stroke:none;stroke-width:0.26458329px;stroke-linecap:butt;stroke-linejoin:miter;stroke-opacity:1"
       aria-label="bia.do">
      <g
         transform="translate(4.9999997e-7,173.49999)"
         id="g1159">
        <path
           d="m 85.234702,429.56292 q 0,-11.5881 -3.752335,-18.20987 -3.641973,-6.73213 -9.601565,-6.73213 -3.973061,0 -9.270476,4.30415 -5.187052,4.19379 -9.932653,11.03628 L 41.97248,480.6609 q 2.207256,2.09689 6.511406,3.75233 4.304149,1.54508 7.725397,1.54508 7.615034,0 14.347165,-7.94612 6.732132,-7.94612 10.705193,-21.18966 3.973061,-13.3539 3.973061,-27.25961 z m -27.701066,67.32131 q -12.029546,0 -24.610907,-1.98653 -12.470998,-1.98653 -21.9622,-5.84923 L 36.012888,347.23226 25.859509,344.69391 27.0735,337.52033 h 40.282427 l -8.387574,47.45601 q -2.096894,12.91245 -4.635238,21.41038 6.732131,-8.93938 14.678254,-13.68498 8.056485,-4.85597 16.333696,-4.85597 13.243538,0 21.079295,9.93265 7.83576,9.8223 7.83576,26.92853 0,19.42386 -7.61503,36.41973 -7.504673,16.88551 -20.417122,26.37671 -12.802087,9.38084 -28.694332,9.38084 z"
           style="font-style:italic;font-variant:normal;font-weight:bold;font-stretch:normal;font-size:226.02304077px;font-family:'Liberation Serif';-inkscape-font-specification:'Liberation Serif Bold Italic';letter-spacing:-16.63524055px;fill:#00c851;fill-opacity:1;stroke-width:0.26458329px"
           id="path1090" />
        <path
           d="m 141.54928,484.41323 13.13318,2.64871 -1.21399,7.28395 h -43.37259 l 16.55442,-93.80839 -10.04301,-2.64871 1.21399,-7.28395 h 40.28243 z m -9.27047,-130.00739 q 0,-7.17358 4.96632,-12.02955 5.07669,-4.85596 12.02955,-4.85596 7.06322,0 11.91918,4.96633 4.96633,4.85596 4.96633,11.91918 0,6.95286 -4.85596,12.02955 -4.85597,4.96632 -12.02955,4.96632 -7.06322,0 -12.02955,-4.85596 -4.96632,-4.96633 -4.96632,-12.13991 z"
           style="font-style:italic;font-variant:normal;font-weight:bold;font-stretch:normal;font-size:226.02304077px;font-family:'Liberation Serif';-inkscape-font-specification:'Liberation Serif Bold Italic';letter-spacing:-16.63524055px;fill:#00c851;fill-opacity:1;stroke-width:0.26458329px"
           id="path1092" />
        <path
           d="m 241.3468,484.41323 12.02955,3.53161 -0.8829,6.40105 h -38.2959 l -0.44145,-15.23007 q -6.51141,8.16685 -14.78862,12.91245 -8.16684,4.63524 -16.66478,4.63524 -13.79535,0 -21.52075,-9.93266 -7.61503,-9.93265 -7.61503,-27.5907 0,-19.31349 8.05648,-35.75755 8.05649,-16.55442 22.40365,-25.93526 14.45753,-9.49121 31.78449,-9.49121 15.23007,0 27.70107,4.96633 l 9.04975,-4.08342 h 5.95959 z m -59.15446,-28.80469 q 0,11.36737 3.75233,18.0995 3.8627,6.62177 9.60157,6.62177 4.41451,0 9.82229,-4.41451 5.40777,-4.41452 9.71192,-10.92592 l 10.92592,-62.13427 q -4.96632,-3.75233 -13.68499,-3.75233 -8.16684,0 -15.1197,7.83576 -6.95286,7.7254 -11.03628,21.0793 -3.97306,13.24353 -3.97306,27.5907 z"
           style="letter-spacing:-12.43122482px;fill:#00c851;fill-opacity:1;stroke-width:0.26458329px"
           id="path1094" />
        <path
           d="m 271.07417,497.54641 q -7.61503,0 -13.02281,-5.29742 -5.29742,-5.29741 -5.29742,-13.02281 0,-7.61503 5.29742,-12.91245 5.29741,-5.40778 13.02281,-5.40778 7.61503,0 12.91245,5.29742 5.40778,5.29741 5.40778,13.02281 0,7.61503 -5.29742,13.02281 -5.29741,5.29742 -13.02281,5.29742 z"
           style="fill:#3f3f3f;fill-opacity:1;stroke-width:0.26458329px"
           id="path1096" />
        <path
           d="m 325.63319,496.55314 q -12.58136,0 -20.19639,-9.71193 -7.61504,-9.71192 -7.61504,-26.7078 0,-19.53421 7.06322,-36.199 7.17359,-16.66478 19.97567,-26.26635 12.91245,-9.71193 28.58397,-9.71193 12.02955,0 19.20313,3.09016 l 0.33109,-3.31088 1.21399,-10.37411 5.07669,-30.01868 -17.65805,-2.64871 1.32435,-7.17358 h 48.00783 l -26.15599,147.44472 10.92592,2.75907 -1.32436,6.62177 h -36.64045 l -0.77254,-15.89225 q -6.51141,8.71866 -14.89898,13.46426 -8.38757,4.63524 -16.44406,4.63524 z m 1.21399,-41.27569 q 0,11.91918 3.09016,18.43059 3.20052,6.51141 8.27721,6.51141 4.19379,0 10.04302,-4.41452 5.95959,-4.41451 10.59483,-10.92591 l 10.70519,-60.69955 q -2.20726,-2.20726 -6.84249,-3.75234 -4.52488,-1.54508 -7.94613,-1.54508 -7.50467,0 -14.01607,7.83576 -6.40105,7.83576 -10.15338,21.18966 -3.75234,13.3539 -3.75234,27.36998 z"
           style="letter-spacing:-12.43122482px;fill:#3f3f3f;fill-opacity:1;stroke-width:0.26458329px"
           id="path1098" />
        <path
           d="m 471.13115,425.36913 q 0,-26.59744 -13.79535,-26.59744 -6.95286,0 -13.79536,8.38757 -6.73213,8.38758 -10.92591,22.51402 -4.08343,14.12644 -4.08343,29.46687 0,12.69172 4.08343,19.64458 4.08342,6.84249 10.48446,6.84249 7.06322,0 13.68499,-8.16684 6.62177,-8.16685 10.48447,-22.07257 3.8627,-13.90571 3.8627,-30.01868 z m -30.5705,71.18401 q -18.76168,0 -30.01869,-11.80882 -11.257,-11.80882 -11.257,-31.67413 0,-17.87877 7.72539,-32.88811 7.7254,-15.00935 21.52075,-23.61765 13.90572,-8.71866 31.23268,-8.71866 18.76168,0 30.01868,11.80882 11.25701,11.80882 11.25701,31.67413 0,17.87878 -7.7254,32.88812 -7.72539,15.00934 -21.63111,23.728 -13.79535,8.6083 -31.12231,8.6083 z"
           style="fill:#3f3f3f;fill-opacity:1;stroke-width:0.26458329px"
           id="path1100" />
      </g>
    </g>
  </g>
</svg>
