<?xml version="1.0" encoding="utf-8"?>
<!-- Generator: Adobe Illustrator 21.0.0, SVG Export Plug-In . SVG Version: 6.00 Build 0)  -->
<svg version="1.1" id="Capa_1" xmlns="http://www.w3.org/2000/svg" xmlns:xlink="http://www.w3.org/1999/xlink" x="0px" y="0px"
	 width="419px" height="142px" viewBox="0 0 419 142" style="enable-background:new 0 0 419 142;" xml:space="preserve">
<style type="text/css">
	.st0{fill:#0084D4;}
	.st1{fill:#FFFFFF;}
</style>
<g>
	<path class="st0" d="M46.4,42.6V30h63.1v63.1H46.4V59.8h7.9v25.4h47.3V37.9H54.3v4.7C54.3,42.6,46.4,42.6,46.4,42.6z M30,110.8
		V47.7h63.1v32.8h-7.9V55.6H37.9v47.3h47.3v-5.2h7.9v13.1H30L30,110.8z"/>
	<path class="st1" d="M147.2,110.9V93.7h2v17.3C149.2,110.9,147.2,110.9,147.2,110.9z M171.1,110.9h-2.3l-9.4-14.5h-0.1
		c0.1,1.7,0.2,3.3,0.2,4.7v9.8h-1.9V93.7h2.3l9.4,14.4h0.1c0-0.2-0.1-0.9-0.1-2c-0.1-1.2-0.1-2-0.1-2.5v-9.9h1.9
		C171.1,93.7,171.1,110.9,171.1,110.9z M184.8,110.9h-2V95.5h-5.5v-1.8h12.9v1.8h-5.5V110.9L184.8,110.9z M206.1,110.9h-9.6V93.7
		h9.6v1.8h-7.6v5.6h7.2v1.8h-7.2v6.3h7.6C206.1,109.1,206.1,110.9,206.1,110.9z M215.5,103.8v7.2h-2V93.7h4.7c2.1,0,3.7,0.4,4.7,1.2
		c1,0.8,1.5,2,1.5,3.7c0,2.3-1.2,3.8-3.5,4.6l4.7,7.8h-2.4l-4.2-7.2H215.5z M215.5,102h2.8c1.4,0,2.5-0.3,3.1-0.8
		c0.7-0.6,1-1.4,1-2.5c0-1.1-0.3-2-1-2.5c-0.7-0.5-1.7-0.8-3.2-0.8h-2.6V102z M245.6,110.9h-2.3l-9.4-14.5h-0.1
		c0.1,1.7,0.2,3.3,0.2,4.7v9.8h-1.9V93.7h2.3l9.4,14.4h0.1c0-0.2-0.1-0.9-0.1-2c-0.1-1.2-0.1-2-0.1-2.5v-9.9h1.9
		C245.6,93.7,245.6,110.9,245.6,110.9z M264.8,110.9l-2.1-5.5h-6.9l-2.1,5.5h-2l6.8-17.3h1.7l6.8,17.3L264.8,110.9L264.8,110.9z
		 M262,103.6l-2-5.3c-0.3-0.8-0.6-1.6-0.8-2.5c-0.2,0.8-0.4,1.7-0.7,2.5l-2,5.3H262z M278.2,110.9h-2V95.5h-5.5v-1.8h12.9v1.8h-5.5
		V110.9L278.2,110.9z M289.9,110.9V93.7h2v17.3C291.9,110.9,289.9,110.9,289.9,110.9z M315.3,102.3c0,2.8-0.7,4.9-2.1,6.5
		c-1.4,1.6-3.3,2.4-5.8,2.4c-2.5,0-4.5-0.8-5.9-2.3c-1.4-1.6-2.1-3.8-2.1-6.6c0-2.8,0.7-5,2.1-6.5c1.4-1.6,3.4-2.3,5.9-2.3
		c2.5,0,4.4,0.8,5.8,2.4C314.6,97.3,315.3,99.5,315.3,102.3L315.3,102.3z M301.5,102.3c0,2.3,0.5,4.1,1.5,5.3c1,1.2,2.4,1.8,4.3,1.8
		c1.9,0,3.4-0.6,4.3-1.8s1.5-3,1.5-5.3c0-2.3-0.5-4.1-1.5-5.3c-1-1.2-2.4-1.8-4.3-1.8c-1.9,0-3.4,0.6-4.4,1.8
		C302,98.2,301.5,100,301.5,102.3z M336.2,110.9h-2.3l-9.4-14.5h-0.1c0.1,1.7,0.2,3.3,0.2,4.7v9.8h-1.9V93.7h2.3l9.4,14.4h0.1
		c0-0.2-0.1-0.9-0.1-2c-0.1-1.2-0.1-2-0.1-2.5v-9.9h1.9C336.2,93.7,336.2,110.9,336.2,110.9z M355.4,110.9l-2.1-5.5h-6.9l-2.1,5.5
		h-2l6.8-17.3h1.7l6.8,17.3L355.4,110.9L355.4,110.9z M352.7,103.6l-2-5.3c-0.3-0.8-0.6-1.6-0.8-2.5c-0.2,0.8-0.4,1.7-0.7,2.5
		l-2,5.3H352.7L352.7,103.6z M363.5,110.9V93.7h2v15.4h7.6v1.8H363.5z"/>
	<path class="st1" d="M373.8,61.1l13.7-22.5h-6.3L371,56.8l-0.4,1.8l-0.4-1.8l-10.3-18.3h-6.2l13.7,22.5l-14.1,23.6h6.4l10.6-19
		l0.4-1.8l0.4,1.8l10.7,19h6.3L373.8,61.1z M294.6,67.5l-1.4-1.4c6.1-1.4,10-6.1,10-13.5c0-8.9-6-14.1-16.2-14.1h-13.3v46.2h5.2
		V66.7h10l10,17.9h6.1L294.6,67.5z M287.7,62.6h-8.8V42.8h9.2c6.3,0,10,3.6,10,9.8C298,59.3,293.9,62.6,287.7,62.6z M231.8,38.5v4.4
		h13v41.8h5.2V42.8H263v-4.4H231.8z M193.2,38.5v4.4h13v41.8h5.2V42.8h12.9v-4.4H193.2z M155.5,60.9c4.9-1.5,7.6-5.3,7.6-10.9
		c0-7.3-5.4-11.5-14.6-11.5h-14.6v46.2h16c9.7,0,15.4-4.7,15.4-12.6C165.3,66.5,161.7,62.3,155.5,60.9z M139.1,42.8h9.4
		c5.9,0,9.3,2.9,9.3,7.6c0,5.4-3.4,8.8-8.7,8.8h-10V42.8z M149.9,80.3L149.9,80.3l-10.8,0v-17h11.2c5.9,0,9.7,3.4,9.7,8.7
		C160,77.2,156.2,80.3,149.9,80.3z M176.8,38.5v46.2h5.2V38.5H176.8z M321.7,80.3V63.5h19.4v-4.2h-19.4V42.8h21.4v-4.4h-26.6v46.2
		h26.8v-4.4H321.7z"/>
</g>
</svg>
