<?xml version="1.0" encoding="utf-8"?>
<!-- Generator: Adobe Illustrator 21.0.0, SVG Export Plug-In . SVG Version: 6.00 Build 0)  -->
<svg version="1.1" id="Capa_2" xmlns="http://www.w3.org/2000/svg" xmlns:xlink="http://www.w3.org/1999/xlink" x="0px" y="0px"
	 width="300px" height="100px" viewBox="0 0 300 100" style="enable-background:new 0 0 300 100;" xml:space="preserve">
<style type="text/css">
	.st0{fill:none;}
	.st1{fill:#080808;}
	.st2{fill:#BFBFB8;}
	.st3{fill:#E9EAA6;}
</style>
<g>
	<path class="st0" d="M242.4,44.2c0-0.7-0.1-1.3-0.2-1.8c-0.7-0.2-1.7-0.4-2.7-0.4h-9.6V49h7.1C240.7,49,242.4,47.3,242.4,44.2z"/>
	<path class="st0" d="M178,57.5c1.3,0,2.7-0.2,3.9-0.7c1.2-0.5,2.3-1.2,3.2-2c0.9-0.8,1.7-1.8,2.2-2.9c0.5-1.2,0.8-2.3,0.8-3.6
		c0-1.2-0.2-2.5-0.8-3.6c-0.2-0.4-0.4-0.8-0.7-1.2c-0.7-0.5-1.4-0.9-2.2-1.2c-1.2-0.5-2.6-0.7-3.9-0.7c-1.4,0-2.7,0.2-3.9,0.7
		c-1.2,0.5-2.3,1.2-3.2,2c-0.9,0.8-1.7,1.8-2.2,3s-0.8,2.3-0.8,3.6c0,1.2,0.2,2.5,0.8,3.6c0.2,0.4,0.5,0.8,0.7,1.2
		c0.7,0.5,1.4,0.8,2.2,1.2C175.3,57.2,176.6,57.5,178,57.5z"/>
	<path class="st0" d="M81.4,44.2c0-0.7-0.1-1.3-0.2-1.8c-0.7-0.2-1.7-0.4-2.7-0.4h-9.7V49h7.1C79.6,49,81.4,47.3,81.4,44.2z"/>
	<path class="st0" d="M135.3,54.6c1.3-1.5,2.1-3.7,2.1-6.7c0-2.1-0.3-3.7-1.1-5.1c-1.2-0.7-2.7-1-4.6-1h-7V57h4.5
		C131.9,57,133.9,56.2,135.3,54.6z"/>
	<polygon class="st0" points="98.9,53 107.1,53 103,45.1 	"/>
	<rect x="42.5" y="34" class="st1" width="2.5" height="1.4"/>
	<rect x="33" y="39.4" class="st1" width="5" height="2.5"/>
	<polygon class="st1" points="59.7,37.9 59.7,39.4 42.5,39.4 42.5,61 40.5,61 40.5,63.4 45,63.4 45,41.9 61.9,41.9 61.9,37.9 	"/>
	<polygon class="st1" points="66.3,53 66.3,61 64.4,61 64.4,63.4 68.8,63.4 68.8,55.5 73.8,55.5 72.3,53 	"/>
	<path class="st1" d="M88.1,46.6c0-3.4-1.2-5.8-3.6-7.2c0.7,1.2,1.1,2.8,1.1,4.7c0,5.4-2.9,8.3-8.6,8.8L85.3,66h-4l1.6,2.5h4.9
		l-8.3-13.1C85.2,55,88.1,52,88.1,46.6z"/>
	<path class="st1" d="M78.4,41.9c1.1,0,1.9,0.2,2.7,0.4c-0.7-1.9-2.3-2.9-5.1-2.9h-9.6v9.5h2.5v-7.1H78.4z"/>
	<polygon class="st1" points="93,57 90.8,61 89.7,61 88.4,63.4 93.3,63.4 95.5,59.5 110.6,59.5 109.2,57 	"/>
	<polygon class="st1" points="102.9,36.9 119.3,66 115.4,66 116.7,68.5 121.8,68.5 103.5,35.9 	"/>
	<polygon class="st1" points="101.1,41.5 95.1,53 98.9,53 103,45.1 	"/>
	<path class="st1" d="M131.7,41.9c1.9,0,3.4,0.3,4.6,1c-0.2-0.5-0.6-1-1-1.3c-1.3-1.4-3.4-2.1-6.1-2.1h-7v17.6h2.5V41.9H131.7z"/>
	<path class="st1" d="M139.8,40.2c1.3,2,2,4.6,2,7.8c0,4.3-1.2,7.5-3.4,9.7c-2.3,2.2-5.7,3.3-10.3,3.3h-7.7v2.5h10.2
		c4.6,0,8-1.1,10.3-3.3c2.3-2.2,3.4-5.4,3.4-9.7c0-4.2-1.2-7.4-3.4-9.5C140.5,40.7,140.2,40.5,139.8,40.2z"/>
	<polygon class="st1" points="161.9,61 147.2,61 147.2,63.4 164.4,63.4 164.4,59.5 161.9,59.5 	"/>
	<polygon class="st1" points="149.1,39.4 149.1,43.8 151.6,43.8 151.6,41.9 162.3,41.9 162.3,37.9 159.8,37.9 159.8,39.4 	"/>
	<polygon class="st1" points="149.1,47.8 149.1,57 151.6,57 151.6,50.2 162.3,50.2 162.3,46.3 159.8,46.3 159.8,47.8 	"/>
	<path class="st1" d="M193.9,45.6L193.9,45.6c-0.8-1.7-1.8-3.1-3.2-4.2c-0.2-0.2-0.6-0.5-0.8-0.7c0.6,0.7,1.1,1.6,1.5,2.4
		c0.7,1.6,1.2,3.3,1.2,5.1c0,1.8-0.4,3.5-1.2,5.1c-0.7,1.6-1.8,3-3.2,4.2s-2.9,2.2-4.6,2.9c-1.7,0.7-3.7,1.1-5.6,1.1
		c-1.9,0-3.8-0.3-5.6-1.1c-1.4-0.6-2.7-1.2-3.7-2.2c0.5,0.7,1,1.2,1.7,1.7c1.3,1.2,2.8,2.2,4.6,2.8c1.7,0.7,3.7,1.1,5.6,1.1
		c2,0,3.8-0.3,5.6-1.1c1.7-0.7,3.3-1.7,4.6-2.9c1.3-1.2,2.4-2.6,3.2-4.2c0.4-0.8,0.7-1.7,0.9-2.5c-0.7-1.6-1.2-3.3-1.2-5.1
		C193.6,47.3,193.7,46.4,193.9,45.6z"/>
	<path class="st1" d="M170.3,50.7c0-1.2,0.2-2.5,0.8-3.6c0.5-1.2,1.2-2.1,2.2-3c0.9-0.8,2-1.5,3.2-2c1.2-0.5,2.5-0.7,3.9-0.7
		s2.7,0.2,3.9,0.7c0.8,0.3,1.6,0.7,2.2,1.2c-0.4-0.6-0.9-1.2-1.5-1.7c-0.9-0.8-2-1.5-3.2-2c-1.2-0.5-2.6-0.7-3.9-0.7
		c-1.4,0-2.7,0.2-3.9,0.7c-1.2,0.5-2.3,1.2-3.2,2c-0.9,0.8-1.7,1.8-2.2,3c-0.5,1.2-0.8,2.3-0.8,3.6c0,1.2,0.2,2.5,0.8,3.6
		c0.5,1.1,1.2,2.1,2.2,2.9c0.3,0.3,0.7,0.6,1,0.8c-0.2-0.4-0.5-0.8-0.7-1.2C170.7,53.2,170.3,52,170.3,50.7z"/>
	<polygon class="st1" points="223,51.5 220.6,51.5 220.6,66 218.7,66 218.7,68.5 223.1,68.5 223.1,61 223,61 	"/>
	<path class="st1" d="M210.3,39.1c-0.7-0.2-1.3-0.2-2-0.2c-1.5,0-2.8,0.2-4.1,0.7c-1.2,0.5-2.3,1.2-3.2,2c-0.9,0.8-1.7,1.8-2.2,3
		c-0.5,1.2-0.8,2.3-0.8,3.6c0,1.2,0.2,2.5,0.8,3.6c0.5,1.2,1.2,2.1,2.2,2.9c0.3,0.3,0.7,0.6,1.1,0.8c-0.2-0.4-0.5-0.8-0.7-1.2
		c-0.5-1.2-0.8-2.3-0.8-3.6c0-1.2,0.2-2.4,0.8-3.6c0.5-1.2,1.2-2.1,2.2-3c0.9-0.8,2-1.5,3.2-2c1.2-0.5,2.6-0.7,4.1-0.7
		c0.6,0,1.2,0.1,2,0.2c0.7,0.2,1.6,0.4,2.6,0.8l2.3-3.3c-1-0.6-2.2-1-3.3-1.3l-1.5,2.1C211.9,39.5,211,39.3,210.3,39.1z"/>
	<path class="st1" d="M212.4,60.9c-1.3,0.4-2.7,0.6-4.2,0.6c-2,0-3.8-0.3-5.6-1.1c-1.4-0.6-2.7-1.3-3.8-2.2c0.5,0.7,1.1,1.2,1.7,1.8
		c1.3,1.2,2.9,2.2,4.6,2.8c1.7,0.7,3.7,1.1,5.6,1.1c1.5,0,2.9-0.2,4.2-0.6c0.4-0.2,0.8-0.2,1.3-0.4v-3.7
		C215,59.9,213.7,60.5,212.4,60.9z"/>
	<path class="st1" d="M216.2,53.9V53h-3.7v2.5h2C215.1,55,215.7,54.5,216.2,53.9z"/>
	<path class="st1" d="M239.5,41.9c1.1,0,1.9,0.2,2.7,0.4c-0.7-1.9-2.3-2.9-5.1-2.9h-9.6v9.5h2.5v-7.1H239.5z"/>
	<polygon class="st1" points="227.4,53 227.4,61 225.5,61 225.5,63.4 229.9,63.4 229.9,55.5 235,55.5 233.4,53 	"/>
	<path class="st1" d="M249.2,46.6c0-3.4-1.2-5.8-3.6-7.2c0.7,1.2,1.1,2.8,1.1,4.7c0,5.4-2.9,8.3-8.6,8.8l8.3,13.1h-4l1.6,2.5h4.9
		l-8.3-13.1C246.3,55,249.2,52,249.2,46.6z"/>
	<polygon class="st1" points="254.2,47.8 254.2,57 256.7,57 256.7,50.2 267.4,50.2 267.4,46.3 264.9,46.3 264.9,47.8 	"/>
	<polygon class="st1" points="254.2,39.4 254.2,43.8 256.7,43.8 256.7,41.9 267.4,41.9 267.4,37.9 264.9,37.9 264.9,39.4 	"/>
	<polygon class="st1" points="267,59.5 267,61 252.2,61 252.2,63.4 269.5,63.4 269.5,59.5 	"/>
	<polygon class="st2" points="42.5,39.4 59.7,39.4 59.7,37.9 59.7,35.4 45,35.4 42.5,35.4 42.5,34 42.5,31.5 38,31.5 38,35.4 
		30.5,35.4 30.5,39.4 33,39.4 38,39.4 38,41.9 38,61 40.5,61 42.5,61 	"/>
	<path class="st2" d="M77,52.9c5.7-0.4,8.6-3.4,8.6-8.8c0-1.9-0.3-3.5-1.1-4.7c-1.5-2.7-4.6-4-9.1-4H61.9v2.5v4V61h2.5h1.9v-8h6
		l1.6,2.5l6.6,10.5h0.9h4L77,52.9z M68.8,49h-2.5v-9.6h9.6c2.8,0,4.6,1,5.1,2.9c0.2,0.6,0.2,1.2,0.2,1.8c0,3.2-1.8,4.8-5.5,4.8
		L68.8,49L68.8,49z"/>
	<path class="st2" d="M102.9,36.9l-1.9-3.5L85.9,61h3.8h1.2l2.2-4h16.2l1.4,2.5l3.7,6.6h1.1h3.9L102.9,36.9z M98.9,53h-3.8l6.1-11.4
		l1.9,3.7l4.1,7.9L98.9,53L98.9,53z"/>
	<path class="st2" d="M138.4,57.7c2.3-2.2,3.4-5.4,3.4-9.7c0-3.2-0.7-5.8-2-7.8c-0.4-0.6-0.9-1.2-1.4-1.7c-2.2-2.1-5.7-3.1-10.5-3.1
		h-10.1V61h2.5h7.7C132.7,61,136.1,59.9,138.4,57.7z M122.2,57V39.4h7c2.7,0,4.8,0.7,6.1,2.1c0.4,0.4,0.7,0.8,1,1.3
		c0.7,1.3,1.1,3,1.1,5.1c0,3-0.7,5.2-2.1,6.7c-1.3,1.5-3.4,2.3-6.1,2.3h-4.5L122.2,57L122.2,57z"/>
	<polygon class="st2" points="161.9,59.5 161.9,57 151.6,57 149.1,57 149.1,47.8 159.8,47.8 159.8,46.3 159.8,43.8 151.6,43.8 
		149.1,43.8 149.1,39.4 159.8,39.4 159.8,37.9 159.8,35.4 144.7,35.4 144.7,61 147.2,61 161.9,61 	"/>
	<path class="st3" d="M178,61.4c2,0,3.8-0.3,5.6-1.1c1.7-0.7,3.3-1.7,4.6-2.9s2.4-2.6,3.2-4.2c0.7-1.6,1.2-3.3,1.2-5.1
		c0-1.8-0.4-3.5-1.2-5.1c-0.4-0.8-0.9-1.7-1.5-2.4c-0.5-0.7-1-1.2-1.7-1.7c-1.3-1.2-2.8-2.2-4.6-2.8c-1.7-0.7-3.7-1.1-5.6-1.1
		c-2,0-3.8,0.3-5.6,1.1c-1.7,0.7-3.3,1.7-4.6,2.8c-1.3,1.2-2.3,2.6-3.2,4.2c-0.7,1.6-1.2,3.3-1.2,5.1s0.4,3.5,1.2,5.1
		c0.7,1.6,1.8,3,3.2,4.2c0.2,0.2,0.6,0.5,0.8,0.7c1.1,0.8,2.4,1.6,3.7,2.2C174.2,61.1,176,61.4,178,61.4z M170.8,54.7
		c-0.9-0.8-1.7-1.8-2.2-2.9c-0.5-1.1-0.8-2.3-0.8-3.6c0-1.2,0.2-2.5,0.8-3.6c0.5-1.2,1.2-2.1,2.2-3c0.9-0.8,2-1.5,3.2-2
		c1.2-0.5,2.5-0.7,3.9-0.7s2.7,0.2,3.9,0.7c1.2,0.5,2.3,1.2,3.2,2c0.6,0.5,1.1,1.1,1.5,1.7c0.2,0.4,0.5,0.8,0.7,1.2
		c0.5,1.2,0.8,2.3,0.8,3.6c0,1.2-0.2,2.5-0.8,3.6c-0.5,1.2-1.2,2.1-2.2,2.9c-0.9,0.8-2,1.5-3.2,2c-1.2,0.5-2.6,0.7-3.9,0.7
		c-1.4,0-2.7-0.2-3.9-0.7c-0.8-0.3-1.5-0.7-2.2-1.2C171.6,55.3,171.2,55.1,170.8,54.7z"/>
	<path class="st3" d="M220.6,51.5V49H210v4h2.5h3.7v0.9c-0.5,0.6-1.1,1.1-1.7,1.6c-0.6,0.4-1.2,0.7-1.7,1.1c-1.4,0.7-2.9,1-4.6,1
		c-1.4,0-2.7-0.2-3.9-0.7c-0.8-0.3-1.5-0.7-2.2-1.2c-0.3-0.2-0.7-0.5-1.1-0.8c-0.9-0.8-1.7-1.8-2.2-2.9c-0.5-1.2-0.8-2.3-0.8-3.6
		c0-1.2,0.2-2.4,0.8-3.6c0.5-1.2,1.2-2.1,2.2-3c0.9-0.8,2-1.5,3.2-2c1.2-0.5,2.6-0.7,4.1-0.7c0.6,0,1.2,0.1,2,0.2
		c0.7,0.2,1.6,0.4,2.6,0.8l1.5-2.1l0.8-1.2c-1-0.6-2.2-1-3.4-1.3c-1.2-0.2-2.4-0.4-3.7-0.4c-2,0-3.8,0.3-5.6,1.1
		c-1.7,0.7-3.3,1.7-4.6,2.8c-1.3,1.2-2.4,2.6-3.2,4.2c-0.4,0.8-0.7,1.7-0.9,2.5c-0.2,0.8-0.2,1.7-0.2,2.6c0,1.7,0.4,3.5,1.2,5.1
		c0,0,0,0,0,0.1c0.7,1.6,1.8,3,3.2,4.2c0.2,0.2,0.5,0.4,0.8,0.7c1.2,0.9,2.4,1.7,3.8,2.2c1.7,0.7,3.7,1.1,5.6,1.1
		c1.5,0,2.9-0.2,4.2-0.6c1.3-0.4,2.6-0.9,3.8-1.7v3.7V66h2.5h2L220.6,51.5L220.6,51.5z"/>
	<path class="st3" d="M238.1,52.9c5.7-0.4,8.6-3.4,8.6-8.8c0-1.9-0.3-3.5-1.1-4.7c-1.5-2.7-4.6-4-9.1-4H223v16V61h0.2h2.3h1.9v-8h6
		l1.6,2.5l6.6,10.5h0.9h4L238.1,52.9z M229.9,49h-2.5v-9.6h9.6c2.8,0,4.6,1,5.1,2.9c0.2,0.6,0.2,1.2,0.2,1.8c0,3.2-1.8,4.8-5.5,4.8
		L229.9,49L229.9,49z"/>
	<polygon class="st3" points="267,59.5 267,57 256.7,57 254.2,57 254.2,47.8 264.9,47.8 264.9,46.3 264.9,43.8 256.7,43.8 
		254.2,43.8 254.2,39.4 264.9,39.4 264.9,37.9 264.9,35.4 249.7,35.4 249.7,61 252.2,61 267,61 	"/>
</g>
</svg>
