<?xml version="1.0" encoding="utf-8"?>
<!-- Generator: Adobe Illustrator 21.0.0, SVG Export Plug-In . SVG Version: 6.00 Build 0)  -->
<svg version="1.1" id="Capa_2" xmlns="http://www.w3.org/2000/svg" xmlns:xlink="http://www.w3.org/1999/xlink" x="0px" y="0px"
	 viewBox="0 0 239 37" style="enable-background:new 0 0 239 37;" xml:space="preserve">
<style type="text/css">
	.st0{fill:none;}
	.st1{fill:#080808;}
	.st2{fill:#BFBFB8;}
	.st3{fill:#E9EAA6;}
</style>
<g>
	<path class="st0" d="M211.9,12.7c0-0.7-0.1-1.3-0.2-1.8c-0.7-0.2-1.7-0.4-2.7-0.4h-9.6v7h7.1C210.2,17.5,211.9,15.8,211.9,12.7z"/>
	<path class="st0" d="M147.5,26c1.3,0,2.7-0.2,3.9-0.7s2.3-1.2,3.2-2s1.7-1.8,2.2-2.9c0.5-1.2,0.8-2.3,0.8-3.6
		c0-1.2-0.2-2.5-0.8-3.6c-0.2-0.4-0.4-0.8-0.7-1.2c-0.7-0.5-1.4-0.9-2.2-1.2c-1.2-0.5-2.6-0.7-3.9-0.7c-1.4,0-2.7,0.2-3.9,0.7
		s-2.3,1.2-3.2,2s-1.7,1.8-2.2,3s-0.8,2.3-0.8,3.6c0,1.2,0.2,2.5,0.8,3.6c0.2,0.4,0.5,0.8,0.7,1.2c0.7,0.5,1.4,0.8,2.2,1.2
		C144.8,25.7,146.1,26,147.5,26z"/>
	<path class="st0" d="M50.9,12.7c0-0.7-0.1-1.3-0.2-1.8C50,10.7,49,10.5,48,10.5h-9.7v7h7.1C49.1,17.5,50.9,15.8,50.9,12.7z"/>
	<path class="st0" d="M104.8,23.1c1.3-1.5,2.1-3.7,2.1-6.7c0-2.1-0.3-3.7-1.1-5.1c-1.2-0.7-2.7-1-4.6-1h-7v15.2h4.5
		C101.4,25.5,103.4,24.7,104.8,23.1z"/>
	<polygon class="st0" points="68.4,21.5 76.6,21.5 72.5,13.6 	"/>
	<rect x="12" y="2.5" class="st1" width="2.5" height="1.4"/>
	<rect x="2.5" y="7.9" class="st1" width="5" height="2.5"/>
	<polygon class="st1" points="29.2,6.4 29.2,7.9 12,7.9 12,29.5 10,29.5 10,31.9 14.5,31.9 14.5,10.4 31.4,10.4 31.4,6.4 	"/>
	<polygon class="st1" points="35.8,21.5 35.8,29.5 33.9,29.5 33.9,31.9 38.3,31.9 38.3,24 43.3,24 41.8,21.5 	"/>
	<path class="st1" d="M57.6,15.1c0-3.4-1.2-5.8-3.6-7.2c0.7,1.2,1.1,2.8,1.1,4.7c0,5.4-2.9,8.3-8.6,8.8l8.3,13.1h-4l1.6,2.5h4.9
		L49,23.9C54.7,23.5,57.6,20.5,57.6,15.1z"/>
	<path class="st1" d="M47.9,10.4c1.1,0,1.9,0.2,2.7,0.4c-0.7-1.9-2.3-2.9-5.1-2.9h-9.6v9.5h2.5v-7.1L47.9,10.4L47.9,10.4z"/>
	<polygon class="st1" points="62.5,25.5 60.3,29.5 59.2,29.5 57.9,31.9 62.8,31.9 65,28 80.1,28 78.7,25.5 	"/>
	<polygon class="st1" points="72.4,5.4 88.8,34.5 84.9,34.5 86.2,37 91.3,37 73,4.4 	"/>
	<polygon class="st1" points="70.6,10 64.6,21.5 68.4,21.5 72.5,13.6 	"/>
	<path class="st1" d="M101.2,10.4c1.9,0,3.4,0.3,4.6,1c-0.2-0.5-0.6-1-1-1.3c-1.3-1.4-3.4-2.1-6.1-2.1h-7v17.6h2.5V10.4H101.2z"/>
	<path class="st1" d="M109.3,8.7c1.3,2,2,4.6,2,7.8c0,4.3-1.2,7.5-3.4,9.7c-2.3,2.2-5.7,3.3-10.3,3.3h-7.7V32h10.2
		c4.6,0,8-1.1,10.3-3.3s3.4-5.4,3.4-9.7c0-4.2-1.2-7.4-3.4-9.5C110,9.2,109.7,9,109.3,8.7z"/>
	<polygon class="st1" points="131.4,29.5 116.7,29.5 116.7,31.9 133.9,31.9 133.9,28 131.4,28 	"/>
	<polygon class="st1" points="118.6,7.9 118.6,12.3 121.1,12.3 121.1,10.4 131.8,10.4 131.8,6.4 129.3,6.4 129.3,7.9 	"/>
	<polygon class="st1" points="118.6,16.3 118.6,25.5 121.1,25.5 121.1,18.7 131.8,18.7 131.8,14.8 129.3,14.8 129.3,16.3 	"/>
	<path class="st1" d="M163.4,14.1L163.4,14.1c-0.8-1.7-1.8-3.1-3.2-4.2c-0.2-0.2-0.6-0.5-0.8-0.7c0.6,0.7,1.1,1.6,1.5,2.4
		c0.7,1.6,1.2,3.3,1.2,5.1s-0.4,3.5-1.2,5.1c-0.7,1.6-1.8,3-3.2,4.2s-2.9,2.2-4.6,2.9c-1.7,0.7-3.7,1.1-5.6,1.1
		c-1.9,0-3.8-0.3-5.6-1.1c-1.4-0.6-2.7-1.2-3.7-2.2c0.5,0.7,1,1.2,1.7,1.7c1.3,1.2,2.8,2.2,4.6,2.8c1.7,0.7,3.7,1.1,5.6,1.1
		c2,0,3.8-0.3,5.6-1.1c1.7-0.7,3.3-1.7,4.6-2.9s2.4-2.6,3.2-4.2c0.4-0.8,0.7-1.7,0.9-2.5c-0.7-1.6-1.2-3.3-1.2-5.1
		C163.1,15.8,163.2,14.9,163.4,14.1z"/>
	<path class="st1" d="M139.8,19.2c0-1.2,0.2-2.5,0.8-3.6c0.5-1.2,1.2-2.1,2.2-3c0.9-0.8,2-1.5,3.2-2s2.5-0.7,3.9-0.7
		s2.7,0.2,3.9,0.7c0.8,0.3,1.6,0.7,2.2,1.2c-0.4-0.6-0.9-1.2-1.5-1.7c-0.9-0.8-2-1.5-3.2-2s-2.6-0.7-3.9-0.7c-1.4,0-2.7,0.2-3.9,0.7
		s-2.3,1.2-3.2,2s-1.7,1.8-2.2,3s-0.8,2.3-0.8,3.6c0,1.2,0.2,2.5,0.8,3.6c0.5,1.1,1.2,2.1,2.2,2.9c0.3,0.3,0.7,0.6,1,0.8
		c-0.2-0.4-0.5-0.8-0.7-1.2C140.2,21.7,139.8,20.5,139.8,19.2z"/>
	<polygon class="st1" points="192.5,20 190.1,20 190.1,34.5 188.2,34.5 188.2,37 192.6,37 192.6,29.5 192.5,29.5 	"/>
	<path class="st1" d="M179.8,7.6c-0.7-0.2-1.3-0.2-2-0.2c-1.5,0-2.8,0.2-4.1,0.7c-1.2,0.5-2.3,1.2-3.2,2s-1.7,1.8-2.2,3
		s-0.8,2.3-0.8,3.6c0,1.2,0.2,2.5,0.8,3.6c0.5,1.2,1.2,2.1,2.2,2.9c0.3,0.3,0.7,0.6,1.1,0.8c-0.2-0.4-0.5-0.8-0.7-1.2
		c-0.5-1.2-0.8-2.3-0.8-3.6c0-1.2,0.2-2.4,0.8-3.6c0.5-1.2,1.2-2.1,2.2-3c0.9-0.8,2-1.5,3.2-2s2.6-0.7,4.1-0.7c0.6,0,1.2,0.1,2,0.2
		c0.7,0.2,1.6,0.4,2.6,0.8l2.3-3.3c-1-0.6-2.2-1-3.3-1.3l-1.5,2.1C181.4,8,180.5,7.8,179.8,7.6z"/>
	<path class="st1" d="M181.9,29.4c-1.3,0.4-2.7,0.6-4.2,0.6c-2,0-3.8-0.3-5.6-1.1c-1.4-0.6-2.7-1.3-3.8-2.2c0.5,0.7,1.1,1.2,1.7,1.8
		c1.3,1.2,2.9,2.2,4.6,2.8c1.7,0.7,3.7,1.1,5.6,1.1c1.5,0,2.9-0.2,4.2-0.6c0.4-0.2,0.8-0.2,1.3-0.4v-3.7
		C184.5,28.4,183.2,29,181.9,29.4z"/>
	<path class="st1" d="M185.7,22.4v-0.9H182V24h2C184.6,23.5,185.2,23,185.7,22.4z"/>
	<path class="st1" d="M209,10.4c1.1,0,1.9,0.2,2.7,0.4c-0.7-1.9-2.3-2.9-5.1-2.9H197v9.5h2.5v-7.1L209,10.4L209,10.4z"/>
	<polygon class="st1" points="196.9,21.5 196.9,29.5 195,29.5 195,31.9 199.4,31.9 199.4,24 204.5,24 202.9,21.5 	"/>
	<path class="st1" d="M218.7,15.1c0-3.4-1.2-5.8-3.6-7.2c0.7,1.2,1.1,2.8,1.1,4.7c0,5.4-2.9,8.3-8.6,8.8l8.3,13.1h-4l1.6,2.5h4.9
		l-8.3-13.1C215.8,23.5,218.7,20.5,218.7,15.1z"/>
	<polygon class="st1" points="223.7,16.3 223.7,25.5 226.2,25.5 226.2,18.7 236.9,18.7 236.9,14.8 234.4,14.8 234.4,16.3 	"/>
	<polygon class="st1" points="223.7,7.9 223.7,12.3 226.2,12.3 226.2,10.4 236.9,10.4 236.9,6.4 234.4,6.4 234.4,7.9 	"/>
	<polygon class="st1" points="236.5,28 236.5,29.5 221.7,29.5 221.7,31.9 239,31.9 239,28 	"/>
	<polygon class="st2" points="12,7.9 29.2,7.9 29.2,6.4 29.2,3.9 14.5,3.9 12,3.9 12,2.5 12,0 7.5,0 7.5,3.9 0,3.9 0,7.9 2.5,7.9 
		7.5,7.9 7.5,10.4 7.5,29.5 10,29.5 12,29.5 	"/>
	<path class="st2" d="M46.5,21.4c5.7-0.4,8.6-3.4,8.6-8.8c0-1.9-0.3-3.5-1.1-4.7c-1.5-2.7-4.6-4-9.1-4H31.4v2.5v4v19.1h2.5h1.9v-8h6
		l1.6,2.5L50,34.5h0.9h4L46.5,21.4z M38.3,17.5h-2.5V7.9h9.6c2.8,0,4.6,1,5.1,2.9c0.2,0.6,0.2,1.2,0.2,1.8c0,3.2-1.8,4.8-5.5,4.8
		L38.3,17.5L38.3,17.5z"/>
	<path class="st2" d="M72.4,5.4l-1.9-3.5L55.4,29.5h3.8h1.2l2.2-4h16.2l1.4,2.5l3.7,6.6H85h3.9L72.4,5.4z M68.4,21.5h-3.8l6.1-11.4
		l1.9,3.7l4.1,7.9L68.4,21.5L68.4,21.5z"/>
	<path class="st2" d="M107.9,26.2c2.3-2.2,3.4-5.4,3.4-9.7c0-3.2-0.7-5.8-2-7.8c-0.4-0.6-0.9-1.2-1.4-1.7c-2.2-2.1-5.7-3.1-10.5-3.1
		H87.3v25.6h2.5h7.7C102.2,29.5,105.6,28.4,107.9,26.2z M91.7,25.5V7.9h7c2.7,0,4.8,0.7,6.1,2.1c0.4,0.4,0.7,0.8,1,1.3
		c0.7,1.3,1.1,3,1.1,5.1c0,3-0.7,5.2-2.1,6.7c-1.3,1.5-3.4,2.3-6.1,2.3h-4.5L91.7,25.5L91.7,25.5z"/>
	<polygon class="st2" points="131.4,28 131.4,25.5 121.1,25.5 118.6,25.5 118.6,16.3 129.3,16.3 129.3,14.8 129.3,12.3 121.1,12.3 
		118.6,12.3 118.6,7.9 129.3,7.9 129.3,6.4 129.3,3.9 114.2,3.9 114.2,29.5 116.7,29.5 131.4,29.5 	"/>
	<path class="st3" d="M147.5,29.9c2,0,3.8-0.3,5.6-1.1c1.7-0.7,3.3-1.7,4.6-2.9s2.4-2.6,3.2-4.2c0.7-1.6,1.2-3.3,1.2-5.1
		s-0.4-3.5-1.2-5.1c-0.4-0.8-0.9-1.7-1.5-2.4c-0.5-0.7-1-1.2-1.7-1.7c-1.3-1.2-2.8-2.2-4.6-2.8c-1.7-0.7-3.7-1.1-5.6-1.1
		c-2,0-3.8,0.3-5.6,1.1c-1.7,0.7-3.3,1.7-4.6,2.8c-1.3,1.2-2.3,2.6-3.2,4.2c-0.7,1.6-1.2,3.3-1.2,5.1s0.4,3.5,1.2,5.1
		c0.7,1.6,1.8,3,3.2,4.2c0.2,0.2,0.6,0.5,0.8,0.7c1.1,0.8,2.4,1.6,3.7,2.2C143.7,29.6,145.5,29.9,147.5,29.9z M140.3,23.2
		c-0.9-0.8-1.7-1.8-2.2-2.9c-0.5-1.1-0.8-2.3-0.8-3.6c0-1.2,0.2-2.5,0.8-3.6c0.5-1.2,1.2-2.1,2.2-3c0.9-0.8,2-1.5,3.2-2
		s2.5-0.7,3.9-0.7s2.7,0.2,3.9,0.7s2.3,1.2,3.2,2c0.6,0.5,1.1,1.1,1.5,1.7c0.2,0.4,0.5,0.8,0.7,1.2c0.5,1.2,0.8,2.3,0.8,3.6
		c0,1.2-0.2,2.5-0.8,3.6c-0.5,1.2-1.2,2.1-2.2,2.9c-0.9,0.8-2,1.5-3.2,2s-2.6,0.7-3.9,0.7c-1.4,0-2.7-0.2-3.9-0.7
		c-0.8-0.3-1.5-0.7-2.2-1.2C141.1,23.8,140.7,23.6,140.3,23.2z"/>
	<path class="st3" d="M190.1,20v-2.5h-10.6v4h2.5h3.7v0.9c-0.5,0.6-1.1,1.1-1.7,1.6c-0.6,0.4-1.2,0.7-1.7,1.1c-1.4,0.7-2.9,1-4.6,1
		c-1.4,0-2.7-0.2-3.9-0.7c-0.8-0.3-1.5-0.7-2.2-1.2c-0.3-0.2-0.7-0.5-1.1-0.8c-0.9-0.8-1.7-1.8-2.2-2.9c-0.5-1.2-0.8-2.3-0.8-3.6
		c0-1.2,0.2-2.4,0.8-3.6c0.5-1.2,1.2-2.1,2.2-3c0.9-0.8,2-1.5,3.2-2s2.6-0.7,4.1-0.7c0.6,0,1.2,0.1,2,0.2c0.7,0.2,1.6,0.4,2.6,0.8
		l1.5-2.1l0.8-1.2c-1-0.6-2.2-1-3.4-1.3c-1.2-0.2-2.4-0.4-3.7-0.4c-2,0-3.8,0.3-5.6,1.1c-1.7,0.7-3.3,1.7-4.6,2.8
		c-1.3,1.2-2.4,2.6-3.2,4.2c-0.4,0.8-0.7,1.7-0.9,2.5s-0.2,1.7-0.2,2.6c0,1.7,0.4,3.5,1.2,5.1c0,0,0,0,0,0.1c0.7,1.6,1.8,3,3.2,4.2
		c0.2,0.2,0.5,0.4,0.8,0.7c1.2,0.9,2.4,1.7,3.8,2.2c1.7,0.7,3.7,1.1,5.6,1.1c1.5,0,2.9-0.2,4.2-0.6c1.3-0.4,2.6-0.9,3.8-1.7v3.7v2.9
		h2.5h2L190.1,20L190.1,20z"/>
	<path class="st3" d="M207.6,21.4c5.7-0.4,8.6-3.4,8.6-8.8c0-1.9-0.3-3.5-1.1-4.7c-1.5-2.7-4.6-4-9.1-4h-13.5v16v9.6h0.2h2.3h1.9v-8
		h6l1.6,2.5l6.6,10.5h0.9h4L207.6,21.4z M199.4,17.5h-2.5V7.9h9.6c2.8,0,4.6,1,5.1,2.9c0.2,0.6,0.2,1.2,0.2,1.8
		c0,3.2-1.8,4.8-5.5,4.8L199.4,17.5L199.4,17.5z"/>
	<polygon class="st3" points="236.5,28 236.5,25.5 226.2,25.5 223.7,25.5 223.7,16.3 234.4,16.3 234.4,14.8 234.4,12.3 226.2,12.3 
		223.7,12.3 223.7,7.9 234.4,7.9 234.4,6.4 234.4,3.9 219.2,3.9 219.2,29.5 221.7,29.5 236.5,29.5 	"/>
</g>
</svg>
