<?xml version="1.0" encoding="utf-8"?>
<!-- Generator: Adobe Illustrator 21.0.0, SVG Export Plug-In . SVG Version: 6.00 Build 0)  -->
<svg version="1.1" id="Capa_1" xmlns="http://www.w3.org/2000/svg" xmlns:xlink="http://www.w3.org/1999/xlink" x="0px" y="0px"
	 width="126px" height="24px" viewBox="0 0 126 24" style="enable-background:new 0 0 126 24;" xml:space="preserve">
<style type="text/css">
	.st0{fill:#FFFFFF;}
</style>
<path class="st0" d="M5.4,11c-2.3-0.8-3.9-1.7-3.9-3.2c0-1.2,1-2.6,3.5-2.6c1.7,0,3.3,0.8,3.7,1C9,6.3,9.3,6.3,9.4,6l0.2-0.4
	c0.1-0.3,0-0.5-0.2-0.7C8.6,4.5,7.1,3.8,5,3.8c-3.6,0-5,2.3-5,4c0,2.5,1.9,3.5,4.7,4.5c2.6,1,4.5,1.8,4.5,3.6c0,1.7-1.5,2.8-3.9,2.8
	c-2.2,0-3.9-1.2-4.3-1.5C0.8,17,0.5,17,0.4,17.2l-0.3,0.5c-0.1,0.2,0,0.4,0.2,0.6c0.8,0.6,2.5,1.7,5.1,1.7c3.1,0,5.4-1.8,5.4-4.2
	C10.7,12.9,8.3,12,5.4,11 M34.8,4.1H34c-0.2,0-0.4,0.1-0.5,0.4L29.8,17h-0.1L25.1,4.1c-0.1-0.2-0.3-0.3-0.5-0.3h-0.1
	c-0.3,0-0.4,0.1-0.5,0.3L19.3,17h-0.1L15.5,4.5c-0.1-0.3-0.3-0.4-0.5-0.4h-0.7c-0.3,0-0.3,0.3-0.2,0.6l4.7,15
	c0.1,0.3,0.3,0.4,0.5,0.4h0.1c0.2,0,0.4-0.1,0.5-0.4l4.7-13.3h0.1l4.7,13.3c0.1,0.2,0.3,0.4,0.5,0.4h0.1c0.3,0,0.4-0.1,0.5-0.4
	l4.7-15C35.1,4.4,35.1,4.1,34.8,4.1 M44.8,3.8c-3.3,0-5.3,1.1-5.4,1.1C39.2,5,39,5.2,39.2,5.5l0.2,0.5c0.1,0.2,0.3,0.4,0.6,0.2
	c0.3-0.1,2.1-1,4.7-1c3.1,0,3.5,1.8,3.5,5.2c-0.4-0.1-2.2-0.7-4-0.7c-4.1,0-6.5,2.3-6.5,5.3c0,3.2,2.2,5.2,5.1,5.2
	c2.5,0,4.5-1.3,5.5-2.2l0.2,1.4c0,0.3,0.2,0.4,0.5,0.4h0.3c0.3,0,0.5-0.2,0.5-0.5v-8.7C49.6,6.5,49.5,3.8,44.8,3.8 M48.2,16.3
	c-0.7,0.9-2.9,2.4-5.3,2.4c-2.2,0-3.8-1.5-3.8-3.8c0-2.3,2.1-3.9,5-3.9c1.9,0,3.5,0.6,4,0.8V16.3z M61.1,3.8c-2.9,0-4.8,1.5-5.3,1.8
	l-0.1-1.1c0-0.3-0.2-0.4-0.4-0.4h-0.2c-0.3,0-0.5,0.2-0.5,0.5v22.6c0,0.3,0.2,0.5,0.5,0.5h0.4c0.2,0,0.5-0.2,0.5-0.5v-8.8
	c0.4,0.4,2.1,1.6,4.7,1.6c4.5,0,7.8-3.6,7.8-8.2C68.5,7.3,65.4,3.8,61.1,3.8 M60.7,18.6c-2.6,0-4.5-1.7-4.7-1.9V7.3
	c0.2-0.3,2-2.1,5-2.1c3.6,0,6,3,6,6.6C67,15.6,64.5,18.6,60.7,18.6"/>
</svg>
