<?xml version="1.0" encoding="utf-8"?>
<!-- Generator: Adobe Illustrator 21.0.0, SVG Export Plug-In . SVG Version: 6.00 Build 0)  -->
<svg version="1.1" id="Capa_1" xmlns="http://www.w3.org/2000/svg" xmlns:xlink="http://www.w3.org/1999/xlink" x="0px" y="0px"
	 width="126px" height="27.8px" viewBox="0 0 126 27.8" style="enable-background:new 0 0 126 27.8;" xml:space="preserve">
<style type="text/css">
	.st0{fill:#FFFFFF;}
</style>
<g>
	<g>
		<path class="st0" d="M55.7,18.3l0.2-0.4c0.1-0.2,0.3-0.2,0.5-0.1c0.3,0.3,1.6,1.2,3.2,1.2c1.8,0,3-0.9,3-2.1c0-1.4-1.4-2-3.4-2.8
			c-2.1-0.7-3.5-1.6-3.5-3.4c0-1.3,1.1-3,3.8-3c1.6,0,2.8,0.5,3.3,0.9C63,8.6,63.1,8.8,63,9l-0.2,0.3c-0.1,0.2-0.3,0.2-0.5,0.1
			c-0.3-0.2-1.6-0.8-2.8-0.8c-1.9,0-2.7,1.1-2.7,2c0,1.2,1.2,1.8,2.9,2.5c2.2,0.8,4.1,1.5,4.1,3.8c0,1.8-1.7,3.2-4.1,3.2
			c-2,0-3.2-0.8-3.9-1.3C55.7,18.6,55.6,18.5,55.7,18.3z"/>
		<path class="st0" d="M66.3,8.4c-0.1-0.3-0.1-0.5,0.2-0.5h0.6c0.2,0,0.3,0.1,0.4,0.3l2.8,9.6h0.1l3.6-9.8c0.1-0.2,0.2-0.3,0.4-0.3
			h0.1c0.2,0,0.3,0.1,0.4,0.3l3.5,9.8h0.1l2.8-9.6c0.1-0.2,0.3-0.3,0.4-0.3h0.6c0.3,0,0.3,0.2,0.2,0.5l-3.5,11.4
			C78.7,20,78.6,20,78.4,20h-0.1c-0.2,0-0.3-0.1-0.4-0.3L74.4,9.6h-0.1l-3.6,10.1c-0.1,0.2-0.2,0.3-0.4,0.3h-0.1
			c-0.2,0-0.3-0.1-0.4-0.3L66.3,8.4z"/>
		<path class="st0" d="M89.2,12.1c1.4,0,2.8,0.4,3.1,0.5c0-2.6-0.3-4-2.7-4c-2,0-3.3,0.7-3.5,0.8c-0.3,0.1-0.4,0-0.5-0.2l-0.1-0.4
			c-0.1-0.2,0-0.4,0.2-0.4c0.1-0.1,1.6-0.9,4.1-0.9c3.6,0,3.7,2.1,3.7,5.2v6.6c0,0.2-0.2,0.4-0.4,0.4h-0.2c-0.2,0-0.3-0.1-0.4-0.3
			l-0.1-1.1c-0.7,0.7-2.3,1.7-4.2,1.7c-2.2,0-3.9-1.5-3.9-3.9C84.3,13.8,86.1,12.1,89.2,12.1z M88.3,18.9c1.8,0,3.4-1.1,4-1.8v-3.4
			c-0.4-0.2-1.6-0.6-3.1-0.6c-2.3,0-3.8,1.2-3.8,3C85.4,17.8,86.6,18.9,88.3,18.9z"/>
		<path class="st0" d="M98.3,25.5c0,0.2-0.2,0.4-0.4,0.4h-0.3c-0.2,0-0.4-0.2-0.4-0.4V8.3c0-0.3,0.2-0.4,0.4-0.4h0.2
			c0.2,0,0.3,0.1,0.3,0.3L98.1,9c0.4-0.3,1.8-1.4,4-1.4c3.3,0,5.6,2.7,5.6,6.2c0,3.5-2.5,6.2-5.9,6.2c-2,0-3.3-0.9-3.6-1.2
			L98.3,25.5L98.3,25.5z M101.8,18.9c2.9,0,4.8-2.3,4.8-5.2c0-2.8-1.8-5-4.6-5c-2.3,0-3.7,1.4-3.8,1.6v7.2
			C98.4,17.6,99.8,18.9,101.8,18.9z"/>
	</g>
	<path class="st0" d="M30.7,12.5c-0.2,0.1-0.5,0.1-0.7-0.1l-0.6-0.9c-1-1.6-2.4-2.5-3.9-2.5h-0.1c-0.3,0-0.5-0.2-0.5-0.5
		s0.2-0.5,0.5-0.5h0.1c1.8,0,3.6,1.1,4.7,3l0.6,0.9C30.9,12,30.9,12.3,30.7,12.5L30.7,12.5z M39.2,19.7c0.1-0.1,0.1-0.2,0.1-0.3
		s0-0.2-0.1-0.3L37,16.8c-0.1-0.1-0.2-0.1-0.3-0.1s-0.2,0-0.3,0.1c-0.2,0.2-0.2,0.5,0,0.7l1.4,1.4h-0.2c-1.5,0-2.9-0.9-3.9-2.5
		l-0.3-0.6c-0.1-0.1-0.2-0.2-0.4-0.2c-0.1,0-0.2,0-0.2,0.1c-0.2,0.1-0.3,0.4-0.1,0.6l0.3,0.6c1.2,1.9,2.9,3,4.7,3h0.2l-1.4,1.4
		c-0.2,0.2-0.2,0.5,0,0.7c0.2,0.2,0.5,0.2,0.7,0L39.2,19.7L39.2,19.7z M36.3,5.9c-0.2,0.2-0.2,0.5,0,0.7l1.4,1.4h-0.1
		c-1.8,0-3.6,1.1-4.7,3l-3.4,5.4c-1,1.6-2.4,2.5-3.9,2.5h-0.2c-0.3,0-0.5,0.2-0.5,0.5c0,0.3,0.2,0.5,0.5,0.5h0.2
		c1.8,0,3.6-1.1,4.7-3l3.4-5.4c1-1.6,2.4-2.5,3.9-2.5h0.1l-1.4,1.4c-0.2,0.2-0.2,0.5,0,0.7c0.2,0.2,0.5,0.2,0.7,0l2.2-2.2
		c0.1-0.1,0.1-0.2,0.1-0.3c0-0.1,0-0.2-0.1-0.3L37,5.9c-0.1-0.1-0.2-0.1-0.3-0.1C36.5,5.7,36.4,5.8,36.3,5.9L36.3,5.9z"/>
	<path class="st0" d="M32.1,27.8c-7.7,0-13.9-6.2-13.9-13.9S24.4,0,32.1,0S46,6.2,46,13.9S39.7,27.8,32.1,27.8z M32.1,0.9
		c-7.1,0-13,5.8-13,13s5.8,13,13,13s13-5.8,13-13S39.2,0.9,32.1,0.9z"/>
</g>
</svg>
