<svg  width="120" height="16" viewBox="0 0 108 16" xmlns="http://www.w3.org/2000/svg">
<path d="M9.72293 0.230133H0V15.773H9.72293V0.230133Z" fill="#8CBF84"/>
<path d="m15.556 0.22852h-3.8892v9.7143h3.8892v-9.7143z" fill="#DE7875"/>
<path d="m15.556 11.886h-3.8892v3.8857h3.8892v-3.8857z" fill="#DCDCDC"/>
<path d="m31.57 12.754l-0.0457 0.0228c-1.0753 0.8686-2.4708 1.3486-3.935 1.3486-3.5688 0.0228-5.971-2.4457-5.971-6.1257 0-3.6114 2.3564-6.1486 5.6965-6.1486 1.5328 0 2.7453 0.36571 3.7977 1.1428l0.0457 0.02286 0.9151-1.4857-0.0457-0.02286c-1.1439-0.98286-2.7911-1.5086-4.7357-1.5086-2.3335 0-4.3009 0.8-5.6964 2.3314-1.3269 1.44-2.059 3.4514-2.059 5.6686 0 4.7771 3.1799 8 7.8927 8 1.9446 0 3.8892-0.6857 4.9187-1.7372l0.0228-0.0228-0.8007-1.4857z" fill="#DCDCDC"/>
<path d="m41.703 0c-2.2191 0-4.2324 0.82286-5.6965 2.3086-1.4413 1.4628-2.242 3.4971-2.242 5.6914 0 4.64 3.3401 8 7.9385 8 2.1962 0 4.2094-0.8 5.6507-2.2629 1.4642-1.4628 2.2649-3.4971 2.2649-5.7371 0.0229-4.64-3.3173-8-7.9156-8zm5.8566 8c0 3.5657-2.4708 6.1485-5.8566 6.1485-1.6014 0-3.0656-0.6171-4.1637-1.76-1.0981-1.1428-1.693-2.6971-1.693-4.3885 0-1.7143 0.5949-3.2914 1.6701-4.4114 1.0752-1.12 2.5623-1.7371 4.1866-1.7371 3.3401 0 5.8566 2.6514 5.8566 6.1486z" fill="#DCDCDC"/>
<path d="m54.446 0.22852h-1.9675v15.543h1.9675v-15.543z" fill="#DCDCDC"/>
<path d="m69.523 0.22852v12.114l-9.5857-12.091-0.0229-0.022857h-1.5557v15.543h1.8531v-12.068l9.5857 12.068h1.5785v-15.543h-1.853z" fill="#DCDCDC"/>
<path d="m82.722 7.9085c-0.6863-0.73143-1.6701-1.1886-2.7453-1.3257l3.5231-4.9371v-1.4171h-8.4875v1.8514h6.0168l-3.8206 5.7828h0.3432c2.6767 0 4.3925 1.28 4.3925 3.2686 0 1.6914-1.3269 3.0171-3.0199 3.0171-1.3955 0-2.6537-0.7314-3.546-2.0571l-0.0228-0.0458-1.0753 1.3257 0.0229 0.0229c0.938 1.92 3.0427 2.6057 4.667 2.6057 2.8597 0 4.9187-2.0343 4.9187-4.8685 0.0228-1.28-0.389-2.4-1.1668-3.2229z" fill="#DCDCDC"/>
<path d="m91.53 6.1714c-1.5785 0-2.8139 0.66285-3.546 1.8514 0.7778-3.9086 3.6375-5.9657 6.0625-6.5828l0.0458-0.02286-0.755-1.4171h-0.0228c-1.8302 0.43428-3.6833 1.6228-5.056 3.2914-1.1438 1.3714-2.4936 3.68-2.4936 6.9714 0 1.5543 0.5033 2.9943 1.3955 4.0229 0.9838 1.12 2.3793 1.7143 4.0036 1.7143 2.3792 0 4.8271-1.8743 4.8271-5.0286 0-2.7886-1.8759-4.8-4.4611-4.8zm2.4937 4.9143c0 1.7143-1.2583 3.04-2.8826 3.04-1.5785 0-3.4316-1.0057-3.4316-3.8857 0.3889-1.1657 1.5328-2.3543 3.2028-2.3543 1.8989 0.02286 3.1114 1.28 3.1114 3.2z" fill="#DCDCDC"/>
<path d="m102.9 0.045746c-3.2714 0-5.0559 2.8343-5.0559 7.9543 0 2.4229 0.4118 4.3657 1.2354 5.7143 0.8694 1.4857 2.1735 2.2171 3.8895 2.2171 3.225 0 5.01-2.8342 5.01-7.9542 0-5.0971-1.807-7.9314-5.079-7.9314zm3.111 7.9543c0 4.2286-0.96 6.2171-3.042 6.2171s-3.1345-2.0799-3.1345-6.2171c0-4.1828 1.0065-6.2171 3.0885-6.2171 2.105 0 3.088 1.9886 3.088 6.2171z" fill="#DCDCDC"/>
</svg>
