<?xml version="1.0" encoding="utf-8"?>
<!-- Generator: Adobe Illustrator 21.0.0, SVG Export Plug-In . SVG Version: 6.00 Build 0)  -->
<svg version="1.2" baseProfile="tiny" id="Layer_1" xmlns="http://www.w3.org/2000/svg" xmlns:xlink="http://www.w3.org/1999/xlink"
	 x="0px" y="0px" viewBox="0 0 120 16" xml:space="preserve">
<path fill="#C2C2D1" d="M15.7,0.2H6v15.5h9.7V0.2z"/>
<path fill="#A3ACDE" d="M21.6,0.2h-3.9v9.7h3.9C21.6,9.9,21.6,0.2,21.6,0.2z"/>
<path fill="#ECECF1" d="M21.6,11.9h-3.9v3.9h3.9V11.9z"/>
<path fill="#A3ACDE" d="M37.6,12.8L37.6,12.8c-1.1,0.9-2.5,1.4-4,1.4c-3.6,0-6-2.4-6-6.1c0-3.6,2.4-6.1,5.7-6.1
	c1.5,0,2.7,0.4,3.8,1.1l0,0l0.9-1.5l0,0c-1.1-1-2.8-1.5-4.7-1.5C31,0,29,0.8,27.6,2.3c-1.3,1.4-2.1,3.5-2.1,5.7c0,4.8,3.2,8,7.9,8
	c1.9,0,3.9-0.7,4.9-1.7l0,0L37.6,12.8L37.6,12.8z"/>
<path fill="#A3ACDE" d="M47.7,0c-2.2,0-4.2,0.8-5.7,2.3c-1.4,1.5-2.2,3.5-2.2,5.7c0,4.6,3.3,8,7.9,8c2.2,0,4.2-0.8,5.7-2.3
	c1.5-1.5,2.3-3.5,2.3-5.7C55.6,3.4,52.3,0,47.7,0z M53.6,8c0,3.6-2.5,6.1-5.9,6.1c-1.6,0-3.1-0.6-4.2-1.8c-1.1-1.1-1.7-2.7-1.7-4.4
	c0-1.7,0.6-3.3,1.7-4.4c1.1-1.1,2.6-1.7,4.2-1.7C51,1.9,53.6,4.5,53.6,8L53.6,8z"/>
<path fill="#A3ACDE" d="M60.4,0.2h-2v15.5h2C60.4,15.8,60.4,0.2,60.4,0.2z"/>
<path fill="#A3ACDE" d="M75.5,0.2v12.1L65.9,0.3l0,0h-1.6v15.5h1.9V3.7l9.6,12.1h1.6V0.2L75.5,0.2L75.5,0.2z"/>
<path fill="#A3ACDE" d="M88.7,7.9C88,7.2,87.1,6.7,86,6.6l3.5-4.9V0.2H81v1.9h6l-3.8,5.8h0.3c2.7,0,4.4,1.3,4.4,3.3c0,1.7-1.3,3-3,3
	c-1.4,0-2.7-0.7-3.5-2.1l0,0l-1.1,1.3l0,0c0.9,1.9,3,2.6,4.7,2.6c2.9,0,4.9-2,4.9-4.9C89.9,9.9,89.5,8.7,88.7,7.9z"/>
<path fill="#A3ACDE" d="M97.5,6.2C96,6.2,94.7,6.8,94,8c0.8-3.9,3.6-6,6.1-6.6l0,0L99.3,0h0c-1.8,0.4-3.7,1.6-5.1,3.3
	c-1.1,1.4-2.5,3.7-2.5,7c0,1.6,0.5,3,1.4,4c1,1.1,2.4,1.7,4,1.7c2.4,0,4.8-1.9,4.8-5C102,8.2,100.1,6.2,97.5,6.2L97.5,6.2z
	 M100,11.1c0,1.7-1.3,3-2.9,3c-1.6,0-3.4-1-3.4-3.9c0.4-1.2,1.5-2.4,3.2-2.4C98.8,7.9,100,9.2,100,11.1z"/>
<path fill="#A3ACDE" d="M108.9,0c-3.3,0-5.1,2.8-5.1,8c0,2.4,0.4,4.4,1.2,5.7c0.9,1.5,2.2,2.2,3.9,2.2c3.2,0,5-2.8,5-8
	C114,2.9,112.2,0,108.9,0L108.9,0z M112,8c0,4.2-1,6.2-3,6.2s-3.1-2.1-3.1-6.2c0-4.2,1-6.2,3.1-6.2C111,1.8,112,3.8,112,8z"/>
</svg>
