<?xml version="1.0" encoding="utf-8"?>
<!-- Generator: Adobe Illustrator 21.0.0, SVG Export Plug-In . SVG Version: 6.00 Build 0)  -->
<svg version="1.1" id="Layer_1" xmlns="http://www.w3.org/2000/svg" xmlns:xlink="http://www.w3.org/1999/xlink" x="0px" y="0px"
	 viewBox="0 0 170.9 28.2" style="enable-background:new 0 0 170.9 28.2;" xml:space="preserve">
<style type="text/css">
	.st0{fill:#CA312C;}
	.st1{fill:#91B949;}
	.st2{fill:#FFFFFF;}
</style>
<title>Asset 1</title>
<g id="Layer_2">
	<g id="Shape_6_copy_12">
		<g id="Shape_6_copy_12-2">
			<path class="st0" d="M26.4,9.7c-0.2-0.7-0.6-1.3-1.1-1.8c-2.2-2.5-4.2-3.4-7.6-1.8h-0.2c-1.3,0.1-2.4,0.9-2.7,2.2
				c-1.2,3.6-2.6,7.1-3.9,10.6l0,0c-0.2,0.3-0.4,0.5-0.6,0.8c-2.4,1.8-4.7,3.4-8,2c-1.2-0.5-3.2-0.3-2.2,2.1
				c0.1,0.3,0.2,0.6,0.5,0.8c0.3,0.3,0.7,0.6,1.1,0.8c4.6,3,9.7,3.7,14.6,1.3c5.6-2.7,9.6-6.9,10-13.5C26.6,12.1,26.6,10.9,26.4,9.7
				z"/>
		</g>
	</g>
	<g id="Shape_7_copy_12">
		<g id="Shape_7_copy_12-2">
			<path class="st1" d="M24.4,6.2c0-0.9,0.1-1.8,0.3-2.8c0.3-2.4-1-3.4-2-3.5s-1.9,0.3-2.6,1c-0.4,0.3-0.4,0.9-0.1,1.3
				c0.5,0.5,0.9,0.5,1.1-0.5c0.5-1.6,2.4,0,2.3,0.8c-0.1,1.7-1.3,2.3-2.4,3S19,6.4,17.3,7C17,7.1,16.9,7.5,17,7.8
				C17,7.9,17.1,8,17.2,8c0.4,0.1,0.9,0.1,1.3,0c1.4-0.2,1.8,0.2,2.3,1.6c0.9-0.4,1.8-0.5,2.7-0.4c0.9,0.3,0.9,0.9,1.3,1.3
				c0.2,0.1,0.4,0,0.5-0.2c0,0,0-0.1,0-0.2C24.7,8.9,24.3,7.6,24.4,6.2z"/>
		</g>
	</g>
	<g id="coinpaprika_copy_7">
		<g id="coinpaprika_copy_7-2">
			<path class="st2" d="M42.1,20.5c-0.3,0.1-0.5,0.1-0.8,0.1s-0.5,0-0.8,0c-0.5,0-0.9-0.1-1.3-0.2c-0.4-0.2-0.7-0.4-1-0.7
				c-0.3-0.3-0.5-0.7-0.7-1.1c-0.2-0.5-0.2-1-0.2-1.5s0.1-1,0.2-1.4c0.1-0.4,0.3-0.8,0.6-1.1s0.6-0.6,1-0.7c0.4-0.2,0.9-0.3,1.4-0.3
				s1,0.1,1.5,0.2c0.5,0.1,1,0.3,1.5,0.5v-2.6c-0.4-0.1-0.9-0.2-1.4-0.3c-0.6-0.1-1.2-0.1-1.9-0.1c-0.8,0-1.7,0.1-2.5,0.4
				c-1.4,0.5-2.6,1.7-3.1,3.1c-0.3,0.8-0.4,1.6-0.4,2.5s0.1,1.7,0.4,2.5c0.5,1.4,1.6,2.5,3,2.9c0.8,0.3,1.6,0.4,2.4,0.4
				c0.6,0,1.2,0,1.8-0.1s1.1-0.3,1.7-0.5V20c-0.2,0.1-0.5,0.2-0.7,0.3C42.6,20.4,42.4,20.5,42.1,20.5z M55.9,12.7
				c-0.5-0.5-1.1-0.9-1.7-1.1c-0.7-0.3-1.5-0.4-2.3-0.4s-1.6,0.1-2.4,0.4c-0.7,0.3-1.3,0.7-1.8,1.2c-0.5,0.6-0.9,1.2-1.1,1.9
				c-0.3,0.8-0.4,1.6-0.4,2.5s0.1,1.7,0.4,2.6c0.2,0.7,0.6,1.3,1.1,1.9c0.5,0.5,1.1,0.9,1.7,1.1c0.7,0.3,1.5,0.4,2.3,0.4
				s1.6-0.1,2.4-0.4c0.7-0.3,1.3-0.7,1.8-1.2c0.5-0.6,0.9-1.2,1.1-1.9c0.3-0.8,0.4-1.6,0.4-2.5s-0.1-1.7-0.4-2.5
				C56.8,13.9,56.4,13.3,55.9,12.7z M54.3,18.6c-0.1,0.4-0.2,0.8-0.5,1.1c-0.2,0.3-0.5,0.6-0.8,0.8c-0.4,0.2-0.8,0.3-1.2,0.3
				c-0.8,0-1.5-0.3-2-0.9c-0.5-0.8-0.8-1.7-0.7-2.7c0-0.5,0-0.9,0.2-1.4c0.1-0.4,0.2-0.8,0.5-1.1c0.2-0.3,0.5-0.6,0.8-0.8
				c0.4-0.2,0.8-0.3,1.2-0.3c0.8-0.1,1.5,0.3,2,0.9c0.5,0.8,0.7,1.7,0.7,2.7C54.5,17.7,54.4,18.2,54.3,18.6z M66.3,11.5h-6v2.1h3.2
				v7.2h-3.7v2.1h9.8v-2.1h-3.3V11.5z M63.4,9.6c0.2,0.2,0.4,0.3,0.6,0.4c0.5,0.2,1,0.2,1.4,0c0.2-0.1,0.4-0.2,0.6-0.4
				s0.3-0.4,0.3-0.6c0.2-0.4,0.2-0.9,0-1.4c-0.1-0.2-0.2-0.4-0.3-0.5c-0.2-0.2-0.4-0.3-0.6-0.4c-0.5-0.2-1-0.2-1.4,0
				c-0.2,0.1-0.4,0.2-0.6,0.4c-0.2,0.2-0.3,0.4-0.4,0.6c-0.2,0.4-0.2,0.9,0,1.3C63.1,9.2,63.2,9.4,63.4,9.6z M81.1,12.3
				c-0.3-0.4-0.7-0.6-1.1-0.8c-0.5-0.2-1-0.3-1.5-0.3c-0.4,0-0.8,0-1.1,0.1c-0.3,0.1-0.6,0.2-0.9,0.4s-0.6,0.4-0.8,0.6
				c-0.3,0.3-0.5,0.5-0.7,0.8l-0.1-1.7h-2.4v11.5h2.8v-7.3c0.4-0.6,0.8-1.1,1.3-1.5c0.4-0.3,0.8-0.5,1.3-0.6c0.9,0,1.4,0.6,1.4,1.9
				v7.5H82v-7.7c0-0.6-0.1-1.1-0.2-1.7C81.7,13.1,81.4,12.7,81.1,12.3z M94.3,12.8c-0.3-0.5-0.8-0.9-1.3-1.1
				c-0.6-0.3-1.2-0.4-1.8-0.4c-0.4,0-0.8,0-1.1,0.1c-0.3,0.1-0.7,0.2-0.9,0.4c-0.3,0.2-0.6,0.4-0.8,0.6c-0.3,0.3-0.5,0.5-0.7,0.8
				l-0.1-1.7h-2.4v15.9H88v-4.5c0.3,0.1,0.5,0.1,0.8,0.1s0.6,0.1,0.9,0.1c0.8,0,1.6-0.1,2.4-0.4c0.7-0.2,1.3-0.6,1.9-1.1
				s1-1.2,1.3-1.9c0.3-0.9,0.5-1.8,0.4-2.7c0-0.8-0.1-1.6-0.3-2.4C95,14,94.7,13.3,94.3,12.8z M92.3,18.7c-0.1,0.4-0.3,0.8-0.6,1.2
				c-0.2,0.3-0.6,0.6-0.9,0.8C90.4,20.9,90,21,89.6,21c-0.3,0-0.7,0-1-0.1c-0.3,0-0.5-0.1-0.8-0.2v-5c0.4-0.6,0.9-1.1,1.3-1.5
				c0.4-0.3,0.8-0.5,1.3-0.6c0.6,0,1.2,0.3,1.5,0.8c0.2,0.3,0.3,0.7,0.4,1.1c0.1,0.5,0.1,1.1,0.1,1.6C92.5,17.7,92.5,18.2,92.3,18.7
				L92.3,18.7z M106.2,12.2c-0.4-0.3-1-0.6-1.5-0.7c-0.7-0.2-1.5-0.3-2.2-0.2c-0.8,0-1.5,0.1-2.2,0.2c-0.6,0.1-1.3,0.3-1.9,0.5v2.2
				c0.6-0.3,1.3-0.5,1.9-0.6c0.7-0.2,1.3-0.2,2-0.2c0.4,0,0.7,0,1.1,0.1c0.3,0.1,0.5,0.2,0.7,0.4s0.3,0.4,0.4,0.6
				c0.1,0.3,0.1,0.5,0.1,0.8V16h-1.5c-0.8,0-1.7,0.1-2.5,0.3c-0.6,0.2-1.2,0.4-1.8,0.8c-0.4,0.3-0.8,0.7-1,1.2s-0.4,1-0.3,1.5
				c0,0.5,0.1,1,0.2,1.4s0.4,0.8,0.7,1.1c0.3,0.3,0.7,0.6,1.1,0.7c0.5,0.2,1,0.3,1.6,0.3c0.4,0,0.8,0,1.2-0.1c0.3-0.1,0.7-0.2,1-0.4
				c0.3-0.2,0.6-0.3,0.9-0.6c0.3-0.2,0.5-0.5,0.8-0.7l0.1,1.5h2.3v-7.8c0-0.6-0.1-1.2-0.3-1.7C106.9,12.9,106.6,12.5,106.2,12.2
				L106.2,12.2z M104.6,19.4c-0.4,0.4-0.9,0.8-1.4,1.2c-0.3,0.3-0.8,0.4-1.2,0.4c-0.4,0-0.9-0.1-1.2-0.4c-0.3-0.3-0.5-0.7-0.4-1.1
				c0-0.2,0-0.5,0.1-0.7s0.3-0.4,0.4-0.5c0.2-0.2,0.5-0.3,0.8-0.4c0.4-0.1,0.8-0.1,1.2-0.1h1.7V19.4z M119.7,12.8
				c-0.3-0.5-0.8-0.9-1.3-1.1c-0.6-0.3-1.2-0.4-1.8-0.4c-0.4,0-0.8,0-1.1,0.1c-0.3,0.1-0.7,0.2-1,0.4s-0.6,0.4-0.8,0.6
				c-0.3,0.3-0.5,0.5-0.7,0.8l-0.1-1.7h-2.4v15.9h2.8v-4.5c0.3,0.1,0.5,0.1,0.8,0.1s0.6,0.1,0.9,0.1c0.8,0,1.6-0.1,2.3-0.4
				c0.7-0.2,1.3-0.6,1.9-1.1c0.5-0.5,1-1.2,1.2-1.9c0.3-0.9,0.5-1.8,0.4-2.7c0-0.8-0.1-1.6-0.3-2.4C120.4,14,120.1,13.3,119.7,12.8
				L119.7,12.8z M117.7,18.7c-0.1,0.4-0.3,0.8-0.6,1.2c-0.2,0.3-0.6,0.6-0.9,0.8c-0.4,0.2-0.8,0.3-1.2,0.3c-0.3,0-0.7,0-1-0.1
				c-0.3,0-0.5-0.1-0.8-0.2v-5c0.4-0.6,0.8-1.1,1.3-1.5c0.4-0.3,0.8-0.5,1.3-0.6c0.6,0,1.2,0.3,1.5,0.8c0.2,0.3,0.3,0.7,0.4,1.1
				c0.1,0.5,0.2,1.1,0.1,1.6C117.9,17.7,117.9,18.2,117.7,18.7L117.7,18.7z M132.5,12.4c-0.3-0.4-0.7-0.7-1.1-0.9
				c-0.5-0.2-1-0.3-1.5-0.3c-0.4,0-0.8,0-1.2,0.1s-0.7,0.2-1,0.4s-0.6,0.4-0.8,0.6c-0.2,0.2-0.5,0.5-0.6,0.8l-0.1-1.7h-2.5v11.5h2.8
				v-7.3c0.4-0.6,0.9-1.2,1.5-1.7c0.4-0.3,0.8-0.5,1.3-0.5c0.2,0,0.4,0,0.6,0.1c0.2,0.1,0.4,0.2,0.5,0.4s0.2,0.5,0.3,0.7
				c0.1,0.4,0.1,0.7,0.1,1.1h2.8c0-0.7,0-1.3-0.2-2C133.1,13.4,132.8,12.9,132.5,12.4L132.5,12.4z M142.4,11.5h-6.1v2.1h3.2v7.2H136
				v2.1h9.8v-2.1h-3.3L142.4,11.5z M139.6,9.6c0.2,0.2,0.4,0.3,0.6,0.4c0.5,0.2,1,0.2,1.4,0c0.2-0.1,0.4-0.2,0.6-0.4
				c0.2-0.2,0.3-0.4,0.4-0.6c0.2-0.4,0.2-0.9,0-1.4c-0.1-0.2-0.2-0.4-0.4-0.6s-0.4-0.3-0.6-0.4c-0.5-0.2-1-0.2-1.4,0
				c-0.2,0.1-0.4,0.2-0.6,0.4c-0.2,0.2-0.3,0.4-0.4,0.6C139,8,139,8.5,139.2,9C139.3,9.3,139.4,9.5,139.6,9.6L139.6,9.6z
				 M158.9,11.5h-3.4l-4,4.8V7h-2.8v15.9h2.8v-5.7l4.2,5.7h3.6l-5-6.2L158.9,11.5z M170.6,13.4c-0.2-0.5-0.5-0.9-0.9-1.2
				s-1-0.6-1.5-0.7c-0.7-0.2-1.5-0.3-2.2-0.2c-0.7,0-1.5,0.1-2.2,0.2c-0.6,0.1-1.3,0.3-1.9,0.5v2.2c0.6-0.3,1.3-0.5,1.9-0.6
				c0.7-0.2,1.3-0.2,2-0.2c0.4,0,0.7,0,1.1,0.1c0.3,0.1,0.5,0.2,0.7,0.4s0.3,0.4,0.4,0.6c0.1,0.3,0.1,0.5,0.1,0.8V16h-1.5
				c-0.8,0-1.7,0.1-2.5,0.3c-0.6,0.2-1.2,0.4-1.8,0.8c-0.4,0.3-0.8,0.7-1,1.2s-0.4,1-0.4,1.5s0.1,1,0.2,1.4c0.1,0.4,0.4,0.8,0.7,1.1
				c0.3,0.3,0.7,0.6,1.1,0.7c0.5,0.2,1,0.3,1.6,0.3c0.4,0,0.8,0,1.2-0.1c0.3-0.1,0.7-0.2,1-0.4c0.3-0.2,0.6-0.3,0.9-0.6
				c0.3-0.2,0.5-0.4,0.8-0.7l0.1,1.5h2.4v-7.8C170.9,14.5,170.8,14,170.6,13.4L170.6,13.4z M168.1,19.4c-0.4,0.4-0.9,0.8-1.4,1.2
				c-0.3,0.3-0.8,0.4-1.2,0.4s-0.9-0.1-1.2-0.4s-0.5-0.7-0.4-1.1c0-0.2,0-0.5,0.1-0.7s0.3-0.4,0.4-0.5c0.2-0.2,0.5-0.3,0.8-0.4
				c0.4-0.1,0.8-0.1,1.2-0.1h1.7L168.1,19.4z"/>
		</g>
	</g>
</g>
</svg>
