<?xml version="1.0" encoding="utf-8"?>
<!-- Generator: Adobe Illustrator 17.1.0, SVG Export Plug-In . SVG Version: 6.00 Build 0)  -->
<!DOCTYPE svg PUBLIC "-//W3C//DTD SVG 1.1//EN" "http://www.w3.org/Graphics/SVG/1.1/DTD/svg11.dtd">
<svg version="1.1" id="Layer_1" xmlns="http://www.w3.org/2000/svg" xmlns:xlink="http://www.w3.org/1999/xlink" x="0px" y="0px"
	 viewBox="0 0 351.7 42" enable-background="new 0 0 351.7 42" xml:space="preserve">
<path fill-rule="evenodd" clip-rule="evenodd" fill="#4BC1BE" d="M150.2,3.9c-1.1-1.1-2.5-2.1-4-2.7c-1.6-0.7-3.3-1-5.2-1
	c-1.9,0-3.6,0.3-5.2,1c-1.6,0.7-2.9,1.6-4.1,2.8c-1.1,1.2-2,2.5-2.7,4.1c-0.6,1.5-0.9,3.2-0.9,4.9c0,1.7,0.3,3.4,0.9,4.9
	c0.6,1.5,1.4,2.8,2.5,3.9l3.5-6.6l3.6,3.5l3.9-9.5l-1.7-0.7l2.3-1.7l2.3-1.7l0.3,2.8l0.3,2.8l-1.7-0.7l-5.1,12.2l-3.8-3.8l-2.5,4.6
	c0.8,0.6,1.7,1.1,2.6,1.5c1.6,0.7,3.3,1,5.2,1c1.9,0,3.6-0.3,5.2-1c3.1-1.3,5.5-3.7,6.7-6.8c0.6-1.5,0.9-3.2,0.9-4.9
	c0-1.7-0.3-3.4-0.9-4.9C152.2,6.4,151.3,5,150.2,3.9z"/>
<path fill="#FFFFFF" d="M0,25.3h17.4v-4H4.4V0.4H0V25.3L0,25.3z M24.1,0.4v24.8h4.4V0.4H24.1L24.1,0.4z M47.1,19.5L39.6,0.4h-4.8
	l10.3,25h3.8l10.3-25h-4.7L47.1,19.5L47.1,19.5z M83.8,0.4H65.4v24.8H84v-3.9H69.7v-6.7h12.5v-3.9H69.7V4.3h14.1V0.4z"/>
<path fill="#FFFFFF" d="M191.5,17.6L178.1,0.4h-4v24.8h4.3V7.6l13.7,17.7h3.7V0.4h-4.3V17.6L191.5,17.6z M123.3,21.3l-2.8-2.8
	c-1.1,1-2.1,1.8-3.2,2.4c-1.1,0.6-2.4,0.9-3.9,0.9c-1.2,0-2.3-0.2-3.3-0.7c-1-0.5-1.9-1.1-2.6-1.9c-0.7-0.8-1.3-1.7-1.7-2.8
	c-0.4-1.1-0.6-2.2-0.6-3.5c0-1.2,0.2-2.4,0.6-3.4c0.4-1.1,1-2,1.7-2.8c0.7-0.8,1.6-1.4,2.6-1.9c1-0.5,2.1-0.7,3.3-0.7
	c1.4,0,2.7,0.3,3.8,0.9c1.1,0.6,2.2,1.3,3.2,2.2l2.8-3.2c-0.6-0.6-1.2-1.1-1.9-1.6c-0.7-0.5-1.4-0.9-2.2-1.2
	c-0.8-0.3-1.6-0.6-2.6-0.8c-0.9-0.2-2-0.3-3.1-0.3c-1.9,0-3.6,0.3-5.2,1c-1.6,0.7-2.9,1.6-4,2.8c-1.1,1.2-2,2.5-2.6,4.1
	c-0.6,1.6-0.9,3.2-0.9,5c0,1.8,0.3,3.5,1,5c0.6,1.6,1.5,2.9,2.6,4.1c1.1,1.1,2.5,2.1,4,2.7c1.5,0.7,3.2,1,5,1c1.2,0,2.2-0.1,3.2-0.3
	c1-0.2,1.8-0.5,2.6-0.9c0.8-0.4,1.6-0.9,2.3-1.4C122,22.6,122.6,22,123.3,21.3L123.3,21.3z M161.3,0.4v24.8h4.4V0.4H161.3z"/>
<path fill="#FFFFFF" d="M223.4,18.8l-5.9-18.4h-4.7l8.7,25h3.8l6.1-17.9l6.1,17.9h3.8l8.7-25h-4.6l-5.9,18.4l-6.1-18.5h-3.7
	L223.4,18.8L223.4,18.8z M265.8,0.2h-4l-10.9,25h4.5l2.6-6h11.7l2.5,6h4.6L265.8,0.2L265.8,0.2z M268,15.4h-8.6l4.3-9.9L268,15.4
	L268,15.4z M290.1,4.5h7.9v-4h-20.2v4h7.9v20.8h4.4V4.5L290.1,4.5z M324.7,21.3l-2.8-2.8c-1.1,1-2.1,1.8-3.2,2.4
	c-1.1,0.6-2.4,0.9-3.9,0.9c-1.2,0-2.3-0.2-3.3-0.7c-1-0.5-1.9-1.1-2.6-1.9c-0.7-0.8-1.3-1.7-1.7-2.8c-0.4-1.1-0.6-2.2-0.6-3.5
	c0-1.2,0.2-2.4,0.6-3.4c0.4-1.1,1-2,1.7-2.8c0.7-0.8,1.6-1.4,2.6-1.9c1-0.5,2.1-0.7,3.3-0.7c1.4,0,2.7,0.3,3.8,0.9
	c1.1,0.6,2.2,1.3,3.2,2.2l2.8-3.2c-0.6-0.6-1.2-1.1-1.9-1.6c-0.7-0.5-1.4-0.9-2.2-1.2c-0.8-0.3-1.6-0.6-2.6-0.8
	c-0.9-0.2-2-0.3-3.1-0.3c-1.9,0-3.6,0.3-5.2,1c-1.6,0.7-2.9,1.6-4,2.8c-1.1,1.2-2,2.5-2.6,4.1c-0.6,1.6-0.9,3.2-0.9,5
	c0,1.8,0.3,3.5,1,5c0.6,1.6,1.5,2.9,2.6,4.1c1.1,1.1,2.5,2.1,4,2.7c1.5,0.7,3.2,1,5,1c1.2,0,2.2-0.1,3.2-0.3c1-0.2,1.8-0.5,2.6-0.9
	c0.8-0.4,1.6-0.9,2.3-1.4C323.4,22.6,324.1,22,324.7,21.3L324.7,21.3z M347.4,14.8v10.5h4.4V0.4h-4.4v10.3h-11.9V0.4h-4.4v24.8h4.4
	V14.8H347.4z"/>
<g>
	<path fill="#4BC1BE" d="M316.4,42V31.3h3.9c0.7,0,1.4,0.1,1.9,0.2c0.5,0.1,0.9,0.3,1.3,0.6c0.3,0.2,0.6,0.6,0.7,0.9
		c0.1,0.4,0.2,0.8,0.2,1.2c0,0.2,0,0.5-0.1,0.7c-0.1,0.2-0.2,0.4-0.3,0.6s-0.3,0.4-0.6,0.5c-0.2,0.2-0.5,0.3-0.8,0.4
		c0.7,0.2,1.2,0.4,1.6,0.8c0.3,0.4,0.5,0.9,0.5,1.5c0,0.5-0.1,0.9-0.3,1.3c-0.2,0.4-0.4,0.7-0.8,1c-0.3,0.3-0.8,0.5-1.3,0.7
		c-0.5,0.2-1.1,0.2-1.7,0.2H316.4z M318.8,35.8h1.3c0.3,0,0.5,0,0.7-0.1c0.2,0,0.4-0.1,0.6-0.2c0.2-0.1,0.3-0.2,0.4-0.4
		c0.1-0.2,0.1-0.4,0.1-0.6c0-0.3,0-0.5-0.1-0.6c-0.1-0.2-0.2-0.3-0.3-0.4c-0.1-0.1-0.3-0.2-0.5-0.2c-0.2,0-0.4-0.1-0.7-0.1h-1.4
		V35.8z M318.8,37.5v2.7h1.7c0.3,0,0.6,0,0.8-0.1c0.2-0.1,0.4-0.2,0.5-0.3c0.1-0.1,0.2-0.3,0.2-0.4c0-0.2,0.1-0.3,0.1-0.5
		c0-0.2,0-0.4-0.1-0.5c-0.1-0.2-0.1-0.3-0.3-0.4c-0.1-0.1-0.3-0.2-0.5-0.2c-0.2-0.1-0.5-0.1-0.8-0.1H318.8z"/>
	<path fill="#4BC1BE" d="M332.8,31.3v1.9h-4.4v2.5h3.3v1.8h-3.3v2.5h4.4V42H326V31.3H332.8z"/>
	<path fill="#4BC1BE" d="M342,31.3v2h-3V42h-2.5v-8.7h-3v-2H342z"/>
	<path fill="#4BC1BE" d="M351.7,42h-1.9c-0.2,0-0.4,0-0.5-0.1c-0.1-0.1-0.2-0.2-0.3-0.4l-0.6-1.9h-4.1l-0.6,1.9
		c0,0.1-0.1,0.3-0.3,0.4c-0.1,0.1-0.3,0.2-0.5,0.2H341l4.1-10.7h2.5L351.7,42z M344.9,37.9h2.9l-1-2.9c-0.1-0.2-0.1-0.4-0.2-0.7
		c-0.1-0.3-0.2-0.5-0.3-0.8c-0.1,0.3-0.2,0.6-0.2,0.8c-0.1,0.3-0.2,0.5-0.2,0.7L344.9,37.9z"/>
</g>
</svg>
