<?xml version="1.0" encoding="utf-8"?>
<!-- Generator: Adobe Illustrator 21.0.0, SVG Export Plug-In . SVG Version: 6.00 Build 0)  -->
<svg version="1.1" id="Layer_1" xmlns="http://www.w3.org/2000/svg" xmlns:xlink="http://www.w3.org/1999/xlink" x="0px" y="0px"
	 viewBox="0 0 167 33" style="enable-background:new 0 0 167 33;" xml:space="preserve">
<style type="text/css">
	.st0{fill:#3366FF;}
	.st1{opacity:0.7;fill:#3366FF;enable-background:new    ;}
</style>
<path class="st0" d="M103.9,15.7v11.4h-2.8V15.7h-2.6v-2.4h2.6V11c0-3.1,2-4.8,4.6-4.8c0.9,0,1.5,0.2,1.6,0.3v2.4
	c-0.1-0.1-0.5-0.2-1.2-0.2c-1,0-2.2,0.5-2.2,2.4v2.2h3.3v2.5L103.9,15.7z M31.2,27.1V6.2h2.7v20.9C33.9,27.1,31.2,27.1,31.2,27.1z
	 M17.3,6.7c3.9,0,6.2,2.3,6.2,5.5c0,2.2-1.3,3.7-3.1,4.4c2.3,0.6,3.7,2.7,3.7,4.9c0,3.2-2.6,5.6-6.3,5.6h-7.2V6.7H17.3z M17,15.6
	c2.3,0,3.6-1.4,3.6-3.3s-1.4-3.2-3.7-3.2h-3.4v6.5H17z M17.4,24.6c2.3,0,3.8-1.3,3.8-3.3S20,18,17.5,18h-4v6.6
	C13.5,24.6,17.4,24.6,17.4,24.6z M47.1,27.6c4.1,0,7.1-3.1,7.1-7.4c0-4.2-2.9-7.4-7.1-7.4C43,12.8,40,16,40,20.2S43,27.6,47.1,27.6z
	 M47.1,15.3c2.3,0,4.3,1.7,4.3,4.9s-2,5-4.3,5s-4.3-1.7-4.3-5C42.8,17,44.8,15.3,47.1,15.3z M63.2,20.2c0,3.2,2,4.9,4.2,4.9
	c2.6,0,3.5-1.8,3.9-2.9l2.4,1c-0.7,2-2.7,4.3-6.3,4.3c-4,0-7-3.2-7-7.4c0-4.3,3-7.4,7-7.4c3.7,0,5.6,2.3,6.2,4.4l-2.5,1
	c-0.3-1.4-1.4-2.9-3.7-2.9C65.2,15.3,63.2,16.9,63.2,20.2z M92.4,27.1l-6-8l5.9-5.9h-3.7l-6,6.1V6.2h-2.7v20.9h2.7v-4.2l1.9-1.9
	l4.5,6.1C89,27.1,92.4,27.1,92.4,27.1z M120.6,27.6c4.1,0,7.1-3.1,7.1-7.4c0-4.2-2.9-7.4-7.1-7.4c-4.1,0-7.1,3.1-7.1,7.4
	C113.5,24.4,116.4,27.6,120.6,27.6z M120.6,15.3c2.3,0,4.3,1.7,4.3,4.9s-2,5-4.3,5s-4.3-1.7-4.3-5C116.2,17,118.3,15.3,120.6,15.3z
	 M133.8,27.1V6.2h2.7v20.9C136.5,27.1,133.8,27.1,133.8,27.1z M145.4,6.5c-0.2-0.1-0.5-0.2-0.7-0.2c-0.4,0-0.7,0.1-0.9,0.4
	s-0.4,0.6-0.4,0.9s0.1,0.5,0.2,0.7c0.1,0.2,0.4,0.4,0.6,0.5c0.2,0.1,0.5,0.1,0.8,0.1c0.3-0.1,0.5-0.2,0.7-0.4s0.3-0.4,0.4-0.7
	c0-0.3,0-0.5-0.1-0.8C145.8,6.8,145.6,6.6,145.4,6.5z M146,13.3h-2.7v13.9h2.7V13.3z M159.9,27.6c4.1,0,7.1-3.1,7.1-7.4
	c0-4.2-2.9-7.4-7.1-7.4c-4.1,0-7.1,3.1-7.1,7.4C152.8,24.4,155.7,27.6,159.9,27.6z M159.9,15.3c2.3,0,4.3,1.7,4.3,4.9s-2,5-4.3,5
	s-4.3-1.7-4.3-5C155.5,17,157.6,15.3,159.9,15.3z"/>
<path class="st1" d="M30.9,33H2.1c-0.5,0-1.1-0.2-1.5-0.6S0,31.5,0,30.9V2.1C0,1.5,0.2,1,0.6,0.6S1.5,0,2.1,0H31
	c0.5,0,1.1,0.2,1.5,0.6S33,1.5,33,2.1v1.3h-0.7V2.1c0-0.4-0.1-0.7-0.4-0.9C31.7,1,31.3,0.8,31,0.8H2.1c-0.4,0-0.7,0.1-0.9,0.4
	C0.9,1.4,0.7,1.7,0.7,2.1V31c0,0.4,0.1,0.7,0.4,0.9c0.2,0.2,0.6,0.4,0.9,0.4h28.9c0.4,0,0.7-0.1,0.9-0.4c0.2-0.2,0.4-0.6,0.4-0.9
	v-0.7H33V31c0,0.5-0.2,1.1-0.6,1.5S31.5,33,30.9,33z"/>
</svg>
